<?xml version="1.0" encoding="UTF-8" standalone="no"?>
<!-- Created with Inkscape (http://www.inkscape.org/) -->

<svg
   width="197mm"
   height="254mm"
   viewBox="0 0 197 254"
   version="1.1"
   id="svg96765"
   inkscape:version="1.1.1 (3bf5ae0d25, 2021-09-20)"
   sodipodi:docname="label-4.svg"
   xmlns:inkscape="http://www.inkscape.org/namespaces/inkscape"
   xmlns:sodipodi="http://sodipodi.sourceforge.net/DTD/sodipodi-0.dtd"
   xmlns="http://www.w3.org/2000/svg"
   xmlns:svg="http://www.w3.org/2000/svg">
  <sodipodi:namedview
     id="namedview96767"
     pagecolor="#ffffff"
     bordercolor="#666666"
     borderopacity="1.0"
     inkscape:pageshadow="2"
     inkscape:pageopacity="0.0"
     inkscape:pagecheckerboard="0"
     inkscape:document-units="mm"
     showgrid="false"
     inkscape:zoom="0.62162861"
     inkscape:cx="613.71049"
     inkscape:cy="450.42972"
     inkscape:window-width="1920"
     inkscape:window-height="986"
     inkscape:window-x="-11"
     inkscape:window-y="-11"
     inkscape:window-maximized="1"
     inkscape:current-layer="layer2"
     inkscape:showpageshadow="false"
     showborder="false" />
  <defs
     id="defs96762">
    <rect
       x="47.234737"
       y="1041.9427"
       width="152.81827"
       height="51.402512"
       id="rect154443" />
    <rect
       x="172.26787"
       y="326.4754"
       width="489.01849"
       height="170.87862"
       id="rect102843" />
    <rect
       x="117.89508"
       y="560.53754"
       width="539.10205"
       height="57.875767"
       id="rect94684" />
    <rect
       x="117.89508"
       y="560.53754"
       width="539.10205"
       height="57.875767"
       id="rect94876" />
    <rect
       x="117.89508"
       y="560.53754"
       width="539.10205"
       height="57.875767"
       id="rect94684-0" />
    <rect
       x="47.234737"
       y="1041.9427"
       width="152.81827"
       height="51.402512"
       id="rect154443-0" />
  </defs>
  <g
     inkscape:label="Layer 1"
     inkscape:groupmode="layer"
     id="layer1"
     sodipodi:insensitive="true">
    <text
       xml:space="preserve"
       transform="scale(0.26458333)"
       id="text102841"
       style="font-style:normal;font-weight:normal;font-size:40px;line-height:1.25;font-family:sans-serif;white-space:pre;shape-inside:url(#rect102843);fill:#000000;fill-opacity:1;stroke:none" />
    <rect
       style="opacity:0.671523;fill:#ffcc00;fill-opacity:1;stroke:#ff2a2a;stroke-width:0.262357;stroke-linecap:butt;stroke-linejoin:round;stroke-miterlimit:4.8;stroke-dasharray:none"
       id="rect200820"
       width="196.73764"
       height="253.73764"
       x="0.5031448"
       y="0.96639162" />
    <rect
       style="opacity:0.671523;fill:#a02c2c;fill-opacity:0;stroke:#d35f5f;stroke-width:0.264583;stroke-linecap:butt;stroke-linejoin:round;stroke-miterlimit:4.8;stroke-dasharray:none"
       id="rect201022"
       width="1.7025172"
       height="0.85125858"
       x="103.967"
       y="246.80209" />
  </g>
  <g
     inkscape:groupmode="layer"
     id="layer2"
     inkscape:label="Layer 2">
    <g
       id="g341430"
       transform="translate(0.85265418)">
      <path
         style="fill:#ff0000;stroke:#000000;stroke-width:0.0609512px;stroke-linecap:butt;stroke-linejoin:miter;stroke-opacity:1"
         d="m 91.71546,16.616614 c 1.58133,1.277341 1.83205,2.855366 1.87866,4.479512 2.98262,-0.807055 5.96922,-1.584541 9.45806,1.383383 2.50221,3.334737 4.78613,7.605637 1.94344,13.570287 -1.59717,2.252 -2.10649,6.25974 -8.48634,7.1804 -1.28743,-0.0648 -3.07436,0.0863 -4.01644,-0.85638 -4.56167,1.87562 -8.48634,-0.46112 -8.48634,-0.46112 -0.0676,0.0206 -3.406851,-0.14351 -4.534691,-9.74953 -0.34306,-4.03023 1.15793,-8.34342 4.405121,-11.330538 2.15937,-1.431916 4.31875,-1.042881 6.47813,-0.395248 l 2.33212,0.658746 c 0.0325,-3.030483 -2.30992,-3.171608 -3.04475,-4.329428 z"
         id="path94674"
         sodipodi:nodetypes="ccccccccccccc" />
      <path
         style="fill:#008000;stroke:#000000;stroke-width:0.0609512px;stroke-linecap:butt;stroke-linejoin:miter;stroke-opacity:1"
         d="m 93.59412,21.096126 c 0.59787,-1.300849 -0.22015,-2.916408 2.33212,-4.545379 4.176,-0.53651 6.76171,-2.172444 7.13462,-3.227887 -0.2027,1.383374 -0.61709,4.216006 -1.94343,5.599388 -2.02356,1.391173 -1.23115,0.790655 -2.91517,1.44925 z"
         id="path94676"
         sodipodi:nodetypes="cccccc" />
      <text
         xml:space="preserve"
         transform="matrix(0.19974322,0,0,0.22463268,35.183932,-83.039786)"
         id="text94680"
         style="font-style:normal;font-variant:normal;font-weight:normal;font-stretch:normal;font-size:40px;line-height:1.25;font-family:'Snowburst One';-inkscape-font-specification:'Snowburst One, Normal';font-variant-ligatures:normal;font-variant-caps:normal;font-variant-numeric:normal;font-variant-east-asian:normal;white-space:pre;shape-inside:url(#rect94684-0);fill:#ff0000;fill-opacity:1;stroke:none;stroke-width:3.50929;stroke-miterlimit:4;stroke-dasharray:none"><tspan
           x="117.89453"
           y="598.52011"
           id="tspan341470">Cawston Cider Co</tspan></text>
    </g>
    <text
       xml:space="preserve"
       style="font-style:normal;font-weight:normal;font-size:49.1588px;line-height:1.25;font-family:sans-serif;-inkscape-font-specification:'Snowburst One, Normal';fill:#ff0000;fill-opacity:1;stroke:none;stroke-width:0.236886"
       x="23.040922"
       y="204.82964"
       id="text173941"
       transform="scale(0.98419656,1.0160572)"><tspan
         sodipodi:role="line"
         id="tspan173939"
         style="fill:#ff0000;fill-opacity:1;stroke-width:0.236886"
         x="23.040922"
         y="204.82964">CIDER</tspan></text>
    <text
       xml:space="preserve"
       style="font-style:normal;font-variant:normal;font-weight:normal;font-stretch:normal;font-size:10.5833px;line-height:1.25;font-family:'Snowburst One';-inkscape-font-specification:'Snowburst One, Normal';font-variant-ligatures:normal;font-variant-caps:normal;font-variant-numeric:normal;font-variant-east-asian:normal;fill:#ff0000;fill-opacity:1;stroke:none;stroke-width:0.0700042"
       x="10.942865"
       y="225.95206"
       id="text143464"><tspan
         sodipodi:role="line"
         id="tspan143462"
         style="font-style:normal;font-variant:normal;font-weight:normal;font-stretch:normal;font-size:10.5833px;font-family:'Snowburst One';-inkscape-font-specification:'Snowburst One, Normal';font-variant-ligatures:normal;font-variant-caps:normal;font-variant-numeric:normal;font-variant-east-asian:normal;fill:#ff0000;fill-opacity:1;stroke-width:0.0700042"
         x="10.942865"
         y="225.95206">Cawston Cider Co Craft Cider</tspan></text>
    <text
       xml:space="preserve"
       transform="matrix(0.26458333,0,0,0.26458333,-3.1424397,-40.817984)"
       id="text154441"
       style="font-style:normal;font-weight:normal;font-size:40px;line-height:1.25;font-family:sans-serif;white-space:pre;shape-inside:url(#rect154443-0);fill:#ff0000;fill-opacity:1;stroke:none"><tspan
         x="47.234375"
         y="1077.334"
         id="tspan341472">500ml</tspan></text>
    <text
       xml:space="preserve"
       style="font-style:normal;font-weight:normal;font-size:10.5833px;line-height:1.25;font-family:sans-serif;fill:#ff0000;fill-opacity:1;stroke:none;stroke-width:0.264583"
       x="145.72525"
       y="244.22668"
       id="text161039"><tspan
         sodipodi:role="line"
         id="tspan161037"
         style="fill:#ff0000;fill-opacity:1;stroke-width:0.264583"
         x="145.72525"
         y="244.22668">ABV 6%</tspan></text>
    <rect
       style="opacity:0.671523;fill:#ffcc00;fill-opacity:0;stroke:#008000;stroke-width:0.264815;stroke-linecap:butt;stroke-linejoin:round;stroke-miterlimit:4.8;stroke-dasharray:none"
       id="rect169659"
       width="196.73518"
       height="253.73518"
       x="0.5031448"
       y="0.96639162" />
    <g
       aria-label="C five"
       transform="scale(0.78701445,1.2706247)"
       id="text300871"
       style="font-size:67.7023px;line-height:1.25;font-family:Elephant;-inkscape-font-specification:'Elephant, Normal';fill:#ff0000;fill-opacity:1;stroke-width:1.69257" />
    <g
       id="g341424"
       transform="translate(-11.445352)">
      <path
         d="m 69.366963,112.52954 q -11.644795,0 -19.159751,-7.17645 -7.447253,-7.244143 -7.447253,-18.279618 0,-11.306284 7.379551,-18.347323 7.447253,-7.108742 19.159751,-7.108742 5.00997,0 8.665895,1.692557 l 7.176444,4.062139 q 2.031069,0 2.708092,-1.354047 0.677023,-1.421748 0.947832,-3.994435 h 1.354046 v 21.393927 h -1.150939 q -2.978901,-8.259681 -4.265245,-11.17088 -1.218642,-2.911199 -4.129841,-5.619291 -2.911198,-2.708092 -7.447253,-2.708092 -5.8901,0 -8.733596,6.634826 -2.843497,6.634825 -2.843497,15.503827 0,9.546024 3.385115,16.587062 3.452817,6.97334 10.087643,6.97334 6.160909,0 9.884536,-4.46835 3.723626,-4.46836 4.942268,-11.644799 l 1.150939,0.203107 q -0.947832,8.124272 -6.16091,13.472762 -5.213077,5.34848 -15.503827,5.34848 z"
         id="path334591"
         style="font-size:67.7023px;line-height:1.25;font-family:Elephant;-inkscape-font-specification:'Elephant, Normal';fill:#ff0000;fill-opacity:1;stroke-width:1.69257"
         transform="scale(0.78701445,1.2706247)" />
      <path
         d="m 130.24507,57.48339 q 0,-2.274318 1.35405,-4.111266 1.35405,-1.836948 1.35405,-2.711686 0,-1.049685 -0.60932,-1.574528 -0.54162,-0.524842 -1.69256,-0.524842 -2.36958,0 -3.45282,3.586424 -1.01553,3.498949 -1.01553,8.922321 l -0.13541,9.184743 h 7.71806 l -1.15093,3.324002 h -6.56713 v 27.204332 l 0.0677,4.0238 q 0,3.14905 0.40622,4.11126 0.40621,0.96221 2.36958,1.31211 l 2.43728,0.0875 v 1.39958 h -22.74797 v -1.39958 l 1.62485,-0.0875 q 1.96337,-0.26243 2.36958,-1.22463 0.40622,-0.96222 0.40622,-4.19874 l 0.0677,-4.0238 V 73.578558 h -4.94226 l 1.08323,-3.324002 h 3.85903 q 0,-1.749475 0.0677,-3.673898 0.13541,-2.011896 0.13541,-2.886633 0,-6.210635 5.48388,-11.371586 5.55159,-5.248425 12.52493,-5.248425 4.60376,0 8.05657,2.536739 3.52052,2.449264 3.52052,7.347794 0,3.149055 -2.03107,5.335899 -1.96336,2.099369 -4.40065,2.099369 -2.43728,0 -4.33294,-1.836948 -1.82797,-1.924422 -1.82797,-5.073477 z"
         id="path334593"
         style="font-size:67.7023px;line-height:1.25;font-family:Elephant;-inkscape-font-specification:'Elephant, Normal';fill:#ff0000;fill-opacity:1;stroke-width:1.92391"
         transform="scale(0.78701445,1.2706247)" />
      <path
         d="m 162.88936,118.79693 h -21.93554 v -1.08324 l 1.62485,-0.0677 q 1.96337,-0.20311 2.36958,-0.94783 0.40622,-0.74473 0.40622,-3.24971 l 0.0677,-3.11431 V 94.15333 l -0.0677,-2.775798 q -0.13541,-1.624855 -0.40622,-2.437283 -0.27081,-0.812428 -2.43728,-1.015535 l -1.82796,-0.135404 v -1.083237 h 17.738 v 23.628067 l 0.0677,3.11431 q 0,2.43728 0.40622,3.24971 0.40621,0.74472 2.36958,0.94783 l 1.62485,0.0677 z m -17.6026,-43.397141 q 0,-2.64039 1.89567,-4.468352 1.96337,-1.895665 4.67146,-1.895665 2.77579,0 4.67146,1.827963 1.96336,1.760259 1.96336,4.536054 0,2.708092 -1.96336,4.603756 -1.89567,1.827962 -4.67146,1.827962 -2.70809,0 -4.67146,-1.827962 -1.89567,-1.895664 -1.89567,-4.603756 z"
         id="path334595"
         style="font-size:67.7023px;line-height:1.25;font-family:Elephant;-inkscape-font-specification:'Elephant, Normal';fill:#ff0000;fill-opacity:1;stroke-width:1.69257"
         transform="scale(0.78701445,1.2706247)" />
      <path
         d="m 191.27768,80.709456 q -0.40622,0 -0.81243,0.0677 -0.40621,0 -1.48945,0.203107 -1.01553,0.135405 -1.01553,1.557153 0,0.744725 0.1354,1.286344 0.13541,0.541618 0.47392,1.354046 l 5.14537,13.675864 4.80686,-12.457223 q 0.81243,-2.36958 0.81243,-3.723626 0,-0.947833 -0.47391,-1.286344 -0.47392,-0.338512 -1.48945,-0.541619 l -2.16648,-0.135404 v -1.083237 h 11.30629 v 1.083237 l -2.50499,0.270809 q -1.08324,0.203107 -1.96337,1.286344 -0.88013,1.015534 -1.82796,3.452817 -0.94783,2.369581 -3.72362,9.478322 -2.7081,7.108744 -4.12984,10.832374 -1.42175,3.72362 -2.23418,5.9578 h -4.80686 q -1.15094,-2.9112 -2.8435,-7.31185 -1.69256,-4.46835 -4.26525,-11.035477 -2.57268,-6.634825 -3.52052,-8.936703 -0.94783,-2.301879 -1.42174,-2.911199 -0.40622,-0.677023 -1.28635,-0.812428 -0.88013,-0.203107 -1.62485,-0.203107 -0.74473,-0.0677 -1.08324,-0.0677 v -1.083237 h 22.00325 z"
         id="path334597"
         style="font-size:67.7023px;line-height:1.25;font-family:Elephant;-inkscape-font-specification:'Elephant, Normal';fill:#ff0000;fill-opacity:1;stroke-width:1.69257"
         transform="scale(0.78701445,1.2706247)" />
      <path
         d="m 235.58285,101.56176 q -1.89566,5.07768 -6.0932,7.98888 -4.19755,2.84349 -9.88454,2.84349 -7.98887,0 -13.13425,-4.40065 -5.14537,-4.46835 -5.14537,-12.321816 0,-7.311848 5.28078,-11.983307 5.34848,-4.739161 12.79573,-4.739161 7.78577,0 11.91561,4.40065 4.12984,4.400649 4.12984,10.764665 h -20.78461 q 0,2.437283 0.33851,5.009971 0.40622,2.504988 1.42175,4.874568 1.08324,2.36958 2.9789,3.85903 1.96337,1.42175 4.87457,1.42175 4.12984,0 6.49942,-2.30188 2.43728,-2.36958 3.72363,-5.8901 z m -11.9156,-8.801295 q -0.0677,-0.744725 -0.13541,-1.760259 0,-1.015535 0,-2.572688 0,-4.12984 -1.01553,-6.228612 -1.01554,-2.166473 -3.52052,-2.166473 -2.16647,0 -3.0466,2.098771 -0.81243,2.031069 -1.15094,6.296314 l -0.13541,4.332947 z"
         id="path334599"
         style="font-size:67.7023px;line-height:1.25;font-family:Elephant;-inkscape-font-specification:'Elephant, Normal';fill:#ff0000;fill-opacity:1;stroke-width:1.69257"
         transform="scale(0.78701445,1.2706247)" />
      <path
         style="fill:#ff0000;stroke:#000000;stroke-width:0.0609512px;stroke-linecap:butt;stroke-linejoin:miter;stroke-opacity:1"
         d="m 119.88574,80.911463 c 1.58133,1.277341 1.83205,2.855366 1.87866,4.479512 2.98262,-0.807055 5.96922,-1.584541 9.45806,1.383383 2.50221,3.334737 4.78613,7.605637 1.94344,13.570282 -1.59717,2.25202 -2.10649,6.25978 -8.48634,7.18044 -1.28743,-0.0648 -3.07436,0.0863 -4.01644,-0.85638 -4.56167,1.87562 -8.48634,-0.46112 -8.48634,-0.46112 -0.0676,0.0206 -3.40685,-0.14351 -4.53469,-9.749565 -0.34306,-4.03023 1.15793,-8.34342 4.40512,-11.330538 2.15937,-1.431916 4.31875,-1.042881 6.47813,-0.395248 l 2.33212,0.658746 c 0.0325,-3.030483 -2.30992,-3.171608 -3.04475,-4.329428 z"
         id="path334989"
         sodipodi:nodetypes="ccccccccccccc" />
      <path
         style="fill:#008000;stroke:#000000;stroke-width:0.0609512px;stroke-linecap:butt;stroke-linejoin:miter;stroke-opacity:1"
         d="m 121.7644,83.274307 c 0.59787,-1.300849 -0.22015,-2.916408 2.33212,-4.545379 4.176,-0.53651 6.76171,-2.172444 7.13462,-3.227887 -0.2027,1.383374 -0.61709,4.216006 -1.94343,5.599388 -2.02356,1.391173 -1.23115,0.790655 -2.91517,1.44925 z"
         id="path334991"
         sodipodi:nodetypes="cccccc" />
    </g>
  </g>
</svg>
