<?xml version="1.0" encoding="UTF-8" standalone="no"?>
<!-- Created with Inkscape (http://www.inkscape.org/) -->

<svg
   width="197mm"
   height="254mm"
   viewBox="0 0 197 254"
   version="1.1"
   id="svg96765"
   inkscape:version="1.1.1 (3bf5ae0d25, 2021-09-20)"
   sodipodi:docname="label-3.svg"
   xmlns:inkscape="http://www.inkscape.org/namespaces/inkscape"
   xmlns:sodipodi="http://sodipodi.sourceforge.net/DTD/sodipodi-0.dtd"
   xmlns="http://www.w3.org/2000/svg"
   xmlns:svg="http://www.w3.org/2000/svg">
  <sodipodi:namedview
     id="namedview96767"
     pagecolor="#ffffff"
     bordercolor="#666666"
     borderopacity="1.0"
     inkscape:pageshadow="2"
     inkscape:pageopacity="0.0"
     inkscape:pagecheckerboard="0"
     inkscape:document-units="mm"
     showgrid="false"
     inkscape:zoom="0.62162861"
     inkscape:cx="555.7981"
     inkscape:cy="453.64708"
     inkscape:window-width="1920"
     inkscape:window-height="986"
     inkscape:window-x="-11"
     inkscape:window-y="-11"
     inkscape:window-maximized="1"
     inkscape:current-layer="layer2"
     inkscape:showpageshadow="false"
     showborder="false" />
  <defs
     id="defs96762">
    <rect
       x="47.234737"
       y="1041.9427"
       width="152.81827"
       height="51.402512"
       id="rect154443" />
    <rect
       x="172.26787"
       y="326.4754"
       width="489.01849"
       height="170.87862"
       id="rect102843" />
    <rect
       x="117.89508"
       y="560.53754"
       width="539.10205"
       height="57.875767"
       id="rect94684" />
    <rect
       x="117.89508"
       y="560.53754"
       width="539.10205"
       height="57.875767"
       id="rect94876" />
    <rect
       x="117.89508"
       y="560.53754"
       width="539.10205"
       height="57.875767"
       id="rect94684-0" />
    <rect
       x="47.234737"
       y="1041.9427"
       width="152.81827"
       height="51.402512"
       id="rect154443-0" />
  </defs>
  <g
     inkscape:label="Layer 1"
     inkscape:groupmode="layer"
     id="layer1"
     sodipodi:insensitive="true">
    <text
       xml:space="preserve"
       transform="scale(0.26458333)"
       id="text102841"
       style="font-style:normal;font-weight:normal;font-size:40px;line-height:1.25;font-family:sans-serif;white-space:pre;shape-inside:url(#rect102843);fill:#000000;fill-opacity:1;stroke:none" />
    <rect
       style="opacity:0.671523;fill:#ffcc00;fill-opacity:1;stroke:#ff2a2a;stroke-width:0.262357;stroke-linecap:butt;stroke-linejoin:round;stroke-miterlimit:4.8;stroke-dasharray:none"
       id="rect200820"
       width="196.73764"
       height="253.73764"
       x="0.5031448"
       y="0.96639162" />
    <rect
       style="opacity:0.671523;fill:#a02c2c;fill-opacity:0;stroke:#d35f5f;stroke-width:0.264583;stroke-linecap:butt;stroke-linejoin:round;stroke-miterlimit:4.8;stroke-dasharray:none"
       id="rect201022"
       width="1.7025172"
       height="0.85125858"
       x="103.967"
       y="246.80209" />
  </g>
  <g
     inkscape:groupmode="layer"
     id="layer2"
     inkscape:label="Layer 2">
    <g
       id="g176084"
       transform="translate(-17.45127,-40.539342)">
      <path
         style="fill:#ff0000;stroke:#000000;stroke-width:0.0609512px;stroke-linecap:butt;stroke-linejoin:miter;stroke-opacity:1"
         d="m 109.16673,57.155956 c 1.58133,1.277341 1.83205,2.855366 1.87866,4.479512 2.98262,-0.807055 5.96922,-1.584541 9.45806,1.383383 2.50221,3.334737 4.78613,7.605637 1.94344,13.570287 -1.59717,2.252 -2.10649,6.25974 -8.48634,7.1804 -1.28743,-0.0648 -3.07436,0.0863 -4.01644,-0.85638 -4.56167,1.87562 -8.48634,-0.46112 -8.48634,-0.46112 -0.0676,0.0206 -3.406851,-0.14351 -4.534691,-9.74953 -0.34306,-4.03023 1.15793,-8.34342 4.405121,-11.330538 2.15937,-1.431916 4.31875,-1.042881 6.47813,-0.395248 l 2.33212,0.658746 c 0.0325,-3.030483 -2.30992,-3.171608 -3.04475,-4.329428 z"
         id="path94674"
         sodipodi:nodetypes="ccccccccccccc" />
      <path
         style="fill:#008000;stroke:#000000;stroke-width:0.0609512px;stroke-linecap:butt;stroke-linejoin:miter;stroke-opacity:1"
         d="m 111.04539,61.635468 c 0.59787,-1.300849 -0.22015,-2.916408 2.33212,-4.545379 4.176,-0.53651 6.76171,-2.172444 7.13462,-3.227887 -0.2027,1.383374 -0.61709,4.216006 -1.94343,5.599388 -2.02356,1.391173 -1.23115,0.790655 -2.91517,1.44925 z"
         id="path94676"
         sodipodi:nodetypes="cccccc" />
      <text
         xml:space="preserve"
         transform="matrix(0.19974322,0,0,0.22463268,52.635202,-42.500444)"
         id="text94680"
         style="font-style:normal;font-variant:normal;font-weight:normal;font-stretch:normal;font-size:40px;line-height:1.25;font-family:'Snowburst One';-inkscape-font-specification:'Snowburst One, Normal';font-variant-ligatures:normal;font-variant-caps:normal;font-variant-numeric:normal;font-variant-east-asian:normal;white-space:pre;shape-inside:url(#rect94684-0);fill:#ff0000;fill-opacity:1;stroke:none;stroke-width:3.50929;stroke-miterlimit:4;stroke-dasharray:none"><tspan
           x="117.89453"
           y="598.52011"
           id="tspan293892">Cawston Cider Co</tspan></text>
    </g>
    <text
       xml:space="preserve"
       style="font-style:normal;font-weight:normal;font-size:49.1588px;line-height:1.25;font-family:sans-serif;-inkscape-font-specification:'Snowburst One, Normal';fill:#ff0000;fill-opacity:1;stroke:none;stroke-width:0.236886"
       x="22.174576"
       y="204.82964"
       id="text173941"
       transform="scale(0.98419656,1.0160572)"><tspan
         sodipodi:role="line"
         id="tspan173939"
         style="fill:#ff0000;stroke-width:0.236886;fill-opacity:1"
         x="22.174576"
         y="204.82964">CIDER</tspan></text>
    <text
       xml:space="preserve"
       style="font-style:normal;font-variant:normal;font-weight:normal;font-stretch:normal;font-size:10.5833px;line-height:1.25;font-family:'Snowburst One';-inkscape-font-specification:'Snowburst One, Normal';font-variant-ligatures:normal;font-variant-caps:normal;font-variant-numeric:normal;font-variant-east-asian:normal;fill:#ff0000;fill-opacity:1;stroke:none;stroke-width:0.0700042"
       x="10.090211"
       y="225.95206"
       id="text143464"><tspan
         sodipodi:role="line"
         id="tspan143462"
         style="font-style:normal;font-variant:normal;font-weight:normal;font-stretch:normal;font-size:10.5833px;font-family:'Snowburst One';-inkscape-font-specification:'Snowburst One, Normal';font-variant-ligatures:normal;font-variant-caps:normal;font-variant-numeric:normal;font-variant-east-asian:normal;fill:#ff0000;fill-opacity:1;stroke-width:0.0700042"
         x="10.090211"
         y="225.95206">Cawston Cider Co Craft Cider</tspan></text>
    <text
       xml:space="preserve"
       transform="matrix(0.26458333,0,0,0.26458333,-3.1424397,-40.817984)"
       id="text154441"
       style="font-style:normal;font-weight:normal;font-size:40px;line-height:1.25;font-family:sans-serif;white-space:pre;shape-inside:url(#rect154443-0);fill:#ff0000;fill-opacity:1;stroke:none"><tspan
         x="47.234375"
         y="1077.334"
         id="tspan293894">500ml</tspan></text>
    <text
       xml:space="preserve"
       style="font-style:normal;font-weight:normal;font-size:10.5833px;line-height:1.25;font-family:sans-serif;fill:#ff0000;fill-opacity:1;stroke:none;stroke-width:0.264583"
       x="145.72525"
       y="244.22668"
       id="text161039"><tspan
         sodipodi:role="line"
         id="tspan161037"
         style="fill:#ff0000;fill-opacity:1;stroke-width:0.264583"
         x="145.72525"
         y="244.22668">ABV 6%</tspan></text>
    <rect
       style="opacity:0.671523;fill:#ffcc00;fill-opacity:0;stroke:#008000;stroke-width:0.264815;stroke-linecap:butt;stroke-linejoin:round;stroke-miterlimit:4.8;stroke-dasharray:none"
       id="rect169659"
       width="196.73518"
       height="253.73518"
       x="0.5031448"
       y="0.96639162" />
    <g
       aria-label="C5 "
       transform="scale(0.74894512,1.3352113)"
       id="text252576"
       style="font-size:75.8883px;line-height:1.25;fill:#ff0000;fill-opacity:1;stroke:#ff2a2a;stroke-width:0.529167;stroke-miterlimit:4.8;stroke-dasharray:none;stroke-opacity:1">
      <g
         aria-label="C5"
         transform="scale(1.491387,0.67051678)"
         id="text260335"
         style="font-size:106.106px;fill:#ff0000;fill-opacity:1;stroke:#ff2a2a;stroke-width:0.529167;stroke-miterlimit:4.8;stroke-dasharray:none;stroke-opacity:1">
        <path
           d="m 102.92187,83.682495 v 11.035438 q -5.284578,-4.921909 -11.294489,-7.356959 -5.958101,-2.43505 -12.693345,-2.43505 -13.26325,0 -20.309352,8.134103 -7.046102,8.082293 -7.046102,23.417933 0,15.28382 7.046102,23.41792 7.046102,8.0823 20.309352,8.0823 6.735244,0 12.693345,-2.43505 6.009911,-2.43505 11.294489,-7.35696 v 10.93182 q -5.491817,3.73029 -11.657156,5.59543 -6.113529,1.86515 -12.952393,1.86515 -17.563444,0 -27.666311,-10.72459 -10.102866,-10.77639 -10.102866,-29.37602 0,-18.651452 10.102866,-29.376034 10.102867,-10.776391 27.666311,-10.776391 6.942483,0 13.056012,1.865145 6.165339,1.813335 11.553537,5.491815 z"
           id="path264665"
           style="fill:#ff0000;fill-opacity:1;stroke:#ff2a2a;stroke-width:0.529167;stroke-miterlimit:4.8;stroke-dasharray:none;stroke-opacity:1" />
        <path
           d="m 86.589538,98.642604 h 41.084992 v 8.807626 H 96.174308 v 18.96231 q 2.27962,-0.77715 4.559242,-1.13981 2.27962,-0.41448 4.55924,-0.41448 12.9524,0 20.51659,7.09791 7.5642,7.09791 7.5642,19.22135 0,12.48611 -7.77144,19.42859 -7.77143,6.89068 -21.91544,6.89068 -4.870102,0 -9.947442,-0.82896 -5.02553,-0.82895 -10.41373,-2.48686 v -10.51734 q 4.66287,2.53867 9.63658,3.7821 4.97372,1.24343 10.517352,1.24343 8.96305,0 14.19582,-4.71467 5.23277,-4.71467 5.23277,-12.79697 0,-8.08229 -5.23277,-12.79696 -5.23277,-4.71467 -14.19582,-4.71467 -4.196582,0 -8.393152,0.93257 -4.14477,0.93257 -8.49677,2.90134 z"
           id="path264667"
           style="fill:#ff0000;fill-opacity:1;stroke:#ff2a2a;stroke-width:0.529167;stroke-miterlimit:4.8;stroke-dasharray:none;stroke-opacity:1" />
      </g>
    </g>
  </g>
</svg>
