<?xml version="1.0" encoding="UTF-8" standalone="no"?>
<!-- Created with Inkscape (http://www.inkscape.org/) -->

<svg
   width="197mm"
   height="254mm"
   viewBox="0 0 197 254"
   version="1.1"
   id="svg96765"
   inkscape:version="1.1.1 (3bf5ae0d25, 2021-09-20)"
   sodipodi:docname="label-1.svg"
   xmlns:inkscape="http://www.inkscape.org/namespaces/inkscape"
   xmlns:sodipodi="http://sodipodi.sourceforge.net/DTD/sodipodi-0.dtd"
   xmlns="http://www.w3.org/2000/svg"
   xmlns:svg="http://www.w3.org/2000/svg">
  <sodipodi:namedview
     id="namedview96767"
     pagecolor="#ffffff"
     bordercolor="#666666"
     borderopacity="1.0"
     inkscape:pageshadow="2"
     inkscape:pageopacity="0.0"
     inkscape:pagecheckerboard="0"
     inkscape:document-units="mm"
     showgrid="false"
     inkscape:zoom="0.62162861"
     inkscape:cx="555.7981"
     inkscape:cy="450.42972"
     inkscape:window-width="1920"
     inkscape:window-height="986"
     inkscape:window-x="-11"
     inkscape:window-y="-11"
     inkscape:window-maximized="1"
     inkscape:current-layer="layer1"
     inkscape:showpageshadow="false"
     showborder="false" />
  <defs
     id="defs96762">
    <rect
       x="47.234737"
       y="1041.9427"
       width="152.81827"
       height="51.402512"
       id="rect154443" />
    <rect
       x="172.26787"
       y="326.4754"
       width="489.01849"
       height="170.87862"
       id="rect102843" />
    <rect
       x="117.89508"
       y="560.53754"
       width="539.10205"
       height="57.875767"
       id="rect94684" />
    <rect
       x="117.89508"
       y="560.53754"
       width="539.10205"
       height="57.875767"
       id="rect94876" />
    <rect
       x="117.89508"
       y="560.53754"
       width="539.10205"
       height="57.875767"
       id="rect94684-0" />
    <rect
       x="47.234737"
       y="1041.9427"
       width="152.81827"
       height="51.402512"
       id="rect154443-0" />
  </defs>
  <g
     inkscape:label="Layer 1"
     inkscape:groupmode="layer"
     id="layer1">
    <text
       xml:space="preserve"
       transform="scale(0.26458333)"
       id="text102841"
       style="font-style:normal;font-weight:normal;font-size:40px;line-height:1.25;font-family:sans-serif;white-space:pre;shape-inside:url(#rect102843);fill:#000000;fill-opacity:1;stroke:none" />
    <rect
       style="opacity:0.671523;fill:#ffcc00;fill-opacity:1;stroke:#ff2a2a;stroke-width:0.262357;stroke-linecap:butt;stroke-linejoin:round;stroke-miterlimit:4.8;stroke-dasharray:none"
       id="rect200820"
       width="196.73764"
       height="253.73764"
       x="0.5031448"
       y="0.96639162" />
    <rect
       style="opacity:0.671523;fill:#a02c2c;fill-opacity:0;stroke:#d35f5f;stroke-width:0.264583;stroke-linecap:butt;stroke-linejoin:round;stroke-miterlimit:4.8;stroke-dasharray:none"
       id="rect201022"
       width="1.7025172"
       height="0.85125858"
       x="103.967"
       y="246.80209" />
  </g>
  <g
     inkscape:groupmode="layer"
     id="layer2"
     inkscape:label="Layer 2">
    <g
       id="g176084"
       transform="translate(-17.451279,-40.539342)">
      <path
         style="fill:#ff0000;stroke:#000000;stroke-width:0.0609512px;stroke-linecap:butt;stroke-linejoin:miter;stroke-opacity:1"
         d="m 109.16673,57.155956 c 1.58133,1.277341 1.83205,2.855366 1.87866,4.479512 2.98262,-0.807055 5.96922,-1.584541 9.45806,1.383383 2.50221,3.334737 4.78613,7.605637 1.94344,13.570287 -1.59717,2.252 -2.10649,6.25974 -8.48634,7.1804 -1.28743,-0.0648 -3.07436,0.0863 -4.01644,-0.85638 -4.56167,1.87562 -8.48634,-0.46112 -8.48634,-0.46112 -0.0676,0.0206 -3.406851,-0.14351 -4.534691,-9.74953 -0.34306,-4.03023 1.15793,-8.34342 4.405121,-11.330538 2.15937,-1.431916 4.31875,-1.042881 6.47813,-0.395248 l 2.33212,0.658746 c 0.0325,-3.030483 -2.30992,-3.171608 -3.04475,-4.329428 z"
         id="path94674"
         sodipodi:nodetypes="ccccccccccccc" />
      <path
         style="fill:#008000;stroke:#000000;stroke-width:0.0609512px;stroke-linecap:butt;stroke-linejoin:miter;stroke-opacity:1"
         d="m 111.04539,61.635468 c 0.59787,-1.300849 -0.22015,-2.916408 2.33212,-4.545379 4.176,-0.53651 6.76171,-2.172444 7.13462,-3.227887 -0.2027,1.383374 -0.61709,4.216006 -1.94343,5.599388 -2.02356,1.391173 -1.23115,0.790655 -2.91517,1.44925 z"
         id="path94676"
         sodipodi:nodetypes="cccccc" />
      <text
         xml:space="preserve"
         transform="matrix(0.19974322,0,0,0.22463268,52.635202,-42.500444)"
         id="text94680"
         style="font-style:normal;font-variant:normal;font-weight:normal;font-stretch:normal;font-size:40px;line-height:1.25;font-family:'Snowburst One';-inkscape-font-specification:'Snowburst One, Normal';font-variant-ligatures:normal;font-variant-caps:normal;font-variant-numeric:normal;font-variant-east-asian:normal;white-space:pre;shape-inside:url(#rect94684-0);fill:#ff0000;fill-opacity:1;stroke:none;stroke-width:3.50929;stroke-miterlimit:4;stroke-dasharray:none"><tspan
           x="117.89453"
           y="598.52011"
           id="tspan215664">Cawston Cider Co</tspan></text>
    </g>
    <path
       d="m 101.66837,145.18662 q -1.35294,0 -3.092431,-1.5942 -1.691171,-1.54106 -2.415945,-2.01932 -1.546211,-0.95655 -3.237382,-1.0628 -1.642849,-0.10633 -2.899159,0.15939 -1.20798,0.26572 -2.94747,0.5845 -6.7647,1.11594 -11.0168,0.79705 -7.73108,-0.5845 -11.355025,-1.91303 -3.623946,-1.3285 -6.716378,-3.24154 -3.044119,-1.96619 -5.991593,-4.83574 -2.89915,-2.86956 -5.121838,-6.85506 -5.025203,-8.7681 -5.025203,-20.61832 0,-23.594142 18.16804,-33.371902 11.838227,-6.42994 30.586107,-6.74878 2.947466,0 5.653331,-2.49757 0.773084,-0.744 1.256301,-1.5942 1.063014,-1.806761 2.802505,-1.806761 1.78781,0 1.78781,1.806761 0,0 -0.72475,3.29468 -1.0147,5.26085 -1.0147,9.67147 l 0.14493,2.23188 q 0,1.91304 -1.352934,1.91304 -1.207974,0 -2.560905,-2.1256 -1.304614,-2.17874 -2.754185,-3.34782 -1.401251,-1.16908 -2.995793,-1.75361 -2.12604,-0.744 -6.95797,-0.744 -4.78361,0 -9.37395,0.95655 -4.590322,0.95655 -8.697467,2.86956 -4.107136,1.8599 -7.634445,4.67632 -3.478986,2.81642 -6.039906,6.58936 -5.460079,8.02413 -5.460079,18.811552 0,18.17387 10.726877,26.88883 8.745793,7.12076 21.06721,7.12076 11.35503,0 15.655443,-4.57004 1.014694,-1.11594 1.932758,-3.08212 0.918104,-1.96618 2.319308,-3.40096 1.401251,-1.43477 2.415948,-1.43477 1.69118,0 1.69118,3.08211 l -0.38655,5.26086 q 0,3.02898 0.77309,7.49273 0.77309,4.41062 -1.20797,4.41062 z"
       id="path115646"
       style="font-size:10.5833px;line-height:1.25;font-family:'Snowburst One';-inkscape-font-specification:'Snowburst One, Normal';fill:#ff0000;fill-opacity:1;stroke-width:2.59443" />
    <path
       d="m 102.21753,154.0188 q -4.542005,0 -4.542005,-1.85993 0,-1.22226 1.304621,-1.96615 1.352934,-0.74451 2.705864,-1.80677 1.35295,-1.11594 2.60925,-2.39132 2.56092,-2.60386 3.33403,-4.2512 0.77309,-1.70047 1.4979,-1.70047 0.77309,0 1.35293,0.74399 0.57982,0.74399 0.57982,1.80675 l -1.15966,7.97096 q 0.24161,0.26531 0.86977,1.1691 0.6765,0.85043 1.78781,1.96616 1.15966,1.11594 2.70589,2.33821 1.54621,1.22226 3.5273,2.28504 4.44537,2.3381 8.89075,2.3381 4.49369,0 8.021,-1.48788 3.57562,-1.48789 6.2815,-4.2512 5.94327,-6.05797 5.94327,-15.51689 0,-15.46373 -10.09873,-19.87435 -3.43066,-1.48792 -7.24789,-1.48792 -3.7689,0 -6.03991,0.47827 -2.27101,0.42511 -4.0105,1.11594 -1.69117,0.69083 -2.94747,1.54106 -1.25631,0.79715 -2.22269,1.48792 -3.7689,2.71014 -5.74999,0.53144 -0.96638,-1.0628 -0.96638,-2.657 l 0.38654,-3.61352 q 0.24161,-6.90819 0.24161,-11.10626 v -6.642484 q 0,-8.024138 -0.14493,-10.681138 l -0.0966,-3.1884 q -0.14493,-3.08212 0.48323,-3.56038 0.91811,-0.5845 3.18907,-0.5845 3.52731,0.0535 6.13655,0.0535 17.73317,0.15939 19.42435,0.15939 1.73949,0 3.33403,-1.27536 1.59454,-1.27536 3.09243,-2.97584 1.4979,-1.75362 2.27101,-1.75362 0.82143,0 0.82143,2.33816 l -0.24161,3.40096 q 0,1.75361 0.38654,3.77294 1.15966,5.84539 -0.6765,5.84539 -1.35293,0 -2.36764,-1.48791 -1.0147,-1.54106 -2.80252,-2.44444 -1.78781,-0.90338 -3.62395,-0.90338 h -12.94956 q -5.12184,0 -11.40335,-0.0535 -0.48323,23.753572 -0.48323,28.057912 0,4.2512 0.6765,4.2512 0.33821,0 1.59454,-0.90339 1.30462,-0.90338 2.31933,-1.48792 1.06302,-0.5845 2.75419,-1.16907 8.98739,-3.08213 17.44326,-0.0535 8.55251,3.08212 12.2731,12.54104 1.93277,4.94202 1.93277,11.63766 0,6.6425 -2.07773,11.53136 -2.07773,4.88886 -5.55672,8.23668 -7.10293,6.85512 -17.49158,6.85512 -7.7794,0 -14.39914,-4.88886 -2.56092,-1.85993 -4.20377,-3.56037 -1.59454,-1.75371 -2.27102,-2.17882 -1.0147,-0.7445 -2.46428,-0.7445 z"
       id="path115648"
       style="font-size:10.5833px;line-height:1.25;font-family:'Snowburst One';-inkscape-font-specification:'Snowburst One, Normal';fill:#008000;fill-opacity:1;stroke-width:2.59443" />
    <text
       xml:space="preserve"
       style="font-style:normal;font-weight:normal;font-size:49.1588px;line-height:1.25;font-family:sans-serif;-inkscape-font-specification:'Snowburst One, Normal';fill:#ff6600;fill-opacity:1;stroke:none;stroke-width:0.236886"
       x="22.174561"
       y="204.82964"
       id="text173941"
       transform="scale(0.98419656,1.0160572)"><tspan
         sodipodi:role="line"
         id="tspan173939"
         style="fill:#ff6600;stroke-width:0.236886"
         x="22.174561"
         y="204.82964">CIDER</tspan></text>
    <text
       xml:space="preserve"
       style="font-style:normal;font-variant:normal;font-weight:normal;font-stretch:normal;font-size:10.5833px;line-height:1.25;font-family:'Snowburst One';-inkscape-font-specification:'Snowburst One, Normal';font-variant-ligatures:normal;font-variant-caps:normal;font-variant-numeric:normal;font-variant-east-asian:normal;fill:#ff0000;fill-opacity:1;stroke:none;stroke-width:0.0700042"
       x="10.090211"
       y="225.95206"
       id="text143464"><tspan
         sodipodi:role="line"
         id="tspan143462"
         style="font-style:normal;font-variant:normal;font-weight:normal;font-stretch:normal;font-size:10.5833px;font-family:'Snowburst One';-inkscape-font-specification:'Snowburst One, Normal';font-variant-ligatures:normal;font-variant-caps:normal;font-variant-numeric:normal;font-variant-east-asian:normal;fill:#ff0000;fill-opacity:1;stroke-width:0.0700042"
         x="10.090211"
         y="225.95206">Cawston Cider Co Craft Cider</tspan></text>
    <text
       xml:space="preserve"
       transform="matrix(0.26458333,0,0,0.26458333,-3.1424397,-40.817984)"
       id="text154441"
       style="font-style:normal;font-weight:normal;font-size:40px;line-height:1.25;font-family:sans-serif;white-space:pre;shape-inside:url(#rect154443-0);fill:#ff0000;fill-opacity:1;stroke:none"><tspan
         x="47.234375"
         y="1077.334"
         id="tspan215666">500ml</tspan></text>
    <text
       xml:space="preserve"
       style="font-style:normal;font-weight:normal;font-size:10.5833px;line-height:1.25;font-family:sans-serif;fill:#ff0000;fill-opacity:1;stroke:none;stroke-width:0.264583"
       x="145.72525"
       y="244.22668"
       id="text161039"><tspan
         sodipodi:role="line"
         id="tspan161037"
         style="fill:#ff0000;fill-opacity:1;stroke-width:0.264583"
         x="145.72525"
         y="244.22668">ABV 6%</tspan></text>
    <rect
       style="opacity:0.671523;fill:#ffcc00;fill-opacity:0;stroke:#008000;stroke-width:0.264815;stroke-linecap:butt;stroke-linejoin:round;stroke-miterlimit:4.8;stroke-dasharray:none"
       id="rect169659"
       width="196.73518"
       height="253.73518"
       x="0.5031448"
       y="0.96639162" />
  </g>
</svg>
