<?xml version="1.0" encoding="UTF-8" standalone="no"?>
<!-- Created with Inkscape (http://www.inkscape.org/) -->

<svg
   version="1.1"
   id="svg16252"
   width="3893"
   height="5148"
   viewBox="0 0 3893 5148"
   sodipodi:docname="cawston_blank_board.svg"
   inkscape:version="1.1.1 (3bf5ae0d25, 2021-09-20)"
   xmlns:inkscape="http://www.inkscape.org/namespaces/inkscape"
   xmlns:sodipodi="http://sodipodi.sourceforge.net/DTD/sodipodi-0.dtd"
   xmlns="http://www.w3.org/2000/svg"
   xmlns:svg="http://www.w3.org/2000/svg">
  <defs
     id="defs16256">
    <linearGradient
       id="linearGradient23738"
       inkscape:swatch="solid">
      <stop
         style="stop-color:#ffffff;stop-opacity:1;"
         offset="0"
         id="stop23736" />
    </linearGradient>
    <clipPath
       clipPathUnits="userSpaceOnUse"
       id="clipPath23062">
      <path
         style="fill:none;stroke:#000000;stroke-width:8;stroke-linecap:butt;stroke-linejoin:miter;stroke-miterlimit:4;stroke-dasharray:none;stroke-opacity:1"
         d="m 889.15819,3104.0008 c -49.0776,-532.075 -175.795,-937.9013 247.44181,-1851.7116 -90.3717,-98.8687 -52.7923,-101.2581 -83.0502,-152.0878 45.6038,-70.1724 85.0788,-119.83339 217.7077,-44.4302 l 35.5441,-231.03668 75.5312,79.97425 c 158.9264,6.61229 298.3659,-16.00577 386.5423,-115.51837 l 31.1011,26.65809 39.9871,-235.47976 119.9614,75.53124 817.5146,4.44302 35.5441,102.18933 173.2776,124.4044 -84.4173,53.31619 c -19.5898,143.88189 88.5629,202.60229 208.8217,253.25179 116.7115,-106.8371 234.0852,-57.5543 268.9732,-275.46688 -107.8076,35.22539 -126.401,-59.71679 -91.2527,-137.73345 22.6566,-31.50878 25.6513,-79.57496 164.3916,-13.32904 l 17.772,-44.43014 26.6581,-44.43014 31.1011,-79.97426 821.9576,-22.21507 22.2151,-93.3033 84.4173,-8.88603 -8.886,133.29043 c 72.5692,-13.36771 145.1384,-55.97194 217.7076,26.65808 73.5605,154.30181 -57.5535,149.41234 -88.8602,222.15072 -5.2665,468.11578 192.4424,686.79598 288.7959,821.95758 83.4222,-52.9929 167.9567,-81.514 257.6948,4.4431 15.1408,190.5607 -41.3187,166.3208 -79.9742,195.4926 l 13.329,48.8731 981.9062,-4.443 -17.7721,608.693 -835.2867,-8.8861 c 14.9933,90.7447 -94.4084,149.9638 -164.3915,159.9486 l -111.7589,-63.5693 c -201.5715,214.383 -240.6818,610.9896 -252.5683,1027.7034 123.8672,74.2831 188.3169,155.422 146.6195,248.8087 -35.6383,92.3152 -154.6676,71.9004 -211.2618,17.6419 -12.4096,-11.8974 -7.2962,31.5776 -24.218,26.7883 l -4.443,137.7334 h -62.2022 l -75.5312,-17.772 -17.7721,-128.8474 -964.1341,-53.3162 v -71.0882 l -53.3161,-48.8732 c -142.9315,77.5127 -175.7026,-6.9751 -213.2647,-84.4173 32.9033,-63.5403 66.5253,-125.1043 124.4044,-119.9613 -44.0257,-235.9297 -156.0723,-313.1442 -275.4669,-373.2132 -148.3521,50.1197 -240.9152,177.4857 -306.568,342.1121 104.5679,12.8784 159.1918,61.1338 111.0754,182.1635 -52.2708,30.2313 -104.9736,66.9404 -151.0625,4.4431 l -53.3162,35.5441 -53.3162,79.9742 -941.919,-26.6581 4.443,48.8732 -151.0625,17.772 4.4431,-168.8345 c -116.9785,-154.9715 -272.6583,-201.5794 -448.7445,-191.0496 l -8.886,35.5441 h -97.74631 l 22.2151,-217.7077 c -63.0855,71.8595 -191.4024,56.4436 -220.7837,-70.4046 10.1828,-81.4699 54.7485,-135.9246 154.1384,-147.3031 z"
         id="path23064"
         sodipodi:nodetypes="ccccccccccccccccccccccccccccccccccccccscccccccccccccccccccccccccc" />
    </clipPath>
  </defs>
  <sodipodi:namedview
     id="namedview16254"
     pagecolor="#ffffff"
     bordercolor="#666666"
     borderopacity="1.0"
     inkscape:pageshadow="2"
     inkscape:pageopacity="0.0"
     inkscape:pagecheckerboard="0"
     showgrid="false"
     showguides="false"
     inkscape:guide-bbox="true"
     inkscape:lockguides="false"
     inkscape:snap-to-guides="true"
     inkscape:zoom="0.093244291"
     inkscape:cx="1367.3759"
     inkscape:cy="2327.2202"
     inkscape:window-width="1920"
     inkscape:window-height="986"
     inkscape:window-x="-11"
     inkscape:window-y="-11"
     inkscape:window-maximized="1"
     inkscape:current-layer="g16258"
     inkscape:showpageshadow="false"
     showborder="true">
    <inkscape:grid
       type="xygrid"
       id="grid23142"
       originx="0"
       originy="0" />
    <sodipodi:guide
       position="0,4624"
       orientation="0,6165.3335"
       inkscape:locked="false"
       id="guide23152" />
    <sodipodi:guide
       position="6165.3335,4624"
       orientation="4624,0"
       inkscape:locked="false"
       id="guide23154" />
    <sodipodi:guide
       position="6165.3335,0"
       orientation="0,-6165.3335"
       inkscape:locked="false"
       id="guide23156" />
    <sodipodi:guide
       position="0,0"
       orientation="-4624,0"
       inkscape:locked="false"
       id="guide23158" />
  </sodipodi:namedview>
  <g
     inkscape:groupmode="layer"
     inkscape:label="Image"
     id="g16258">
    <path
       style="fill:none;stroke:#000000;stroke-width:1px;stroke-linecap:butt;stroke-linejoin:miter;stroke-opacity:1"
       d="M 1906.6003,4926.058 Z"
       id="path2553"
       inkscape:export-filename="D:\Pictures\project\board_blank.png"
       inkscape:export-xdpi="96"
       inkscape:export-ydpi="96" />
    <path
       style="fill:#808000;fill-opacity:0.666667;stroke:#ffff00;stroke-width:0;stroke-linecap:butt;stroke-linejoin:miter;stroke-miterlimit:4;stroke-dasharray:none;stroke-opacity:1"
       d="m 1006.2665,705.65405 c 474.9851,-180.15679 987.7434,-250.4278 1583.6147,-78.91558 43.9391,-95.7616 77.8155,-80.83194 114.1333,-92.75904 118.9775,95.52127 73.1206,118.42842 70.6412,174.85407 l 198.3065,-5.94777 -55.1052,75.36748 c -8.2439,155.1524 66.1139,236.88099 155.998,304.80849 l -17.4553,30.0668 202.6996,-2.9244 -44.548,111.7648 122.3088,682.9976 -79.81,45.4178 -77.1201,163.7972 -57.5113,-62.2377 c -144.8835,37.0453 -134.3313,136.2649 -179.1794,213.3243 77.3348,94.7935 141.7715,223.1221 271.3709,182.0277 20.3426,-19.6376 -47.7514,-129.4507 100.8887,-97.3923 36.9252,24.7833 85.462,40.0662 36.465,135.1496 l 152.5553,37.0144 145.2431,682.5965 81.297,4.1587 20.4291,69.0865 -112.6164,13.1299 c 27.8858,59.2577 54.859,118.6169 11.3096,185.812 -34.0649,32.4581 -69.7578,62.6098 -199.1086,-39.9206 -402.2918,88.3138 -494.36,233.032 -641.5039,367.7363 85.5429,64.1797 104.7207,135.3452 36.0145,215.7617 -129.2877,46.7882 -137.6227,-7.2176 -175.4895,-36.6135 l -38.7358,18.6584 155.0657,818.8319 -510.7658,78.995 -121.3401,-698.5153 c -76.6805,13.3447 -138.6986,-4.7303 -158.8364,-112.5486 l 35.8289,-103.075 c -263.0314,-166.8749 -588.2337,-74.704 -896.6727,-52.3812 -74.7552,188.8016 -149.51039,169.9855 -224.26559,152.8362 -45.9178,-1.4117 -44.4742,-84.0141 -34.1744,-181.7988 v 0 l -115.63971,17.5229 -9.58826,-51.9151 3.18997,-65.7791 104.7989,-34.6944 -104.11933,-812.9024 59.33151,-10.958 32.57192,-52.0323 c -69.3628,-90.9658 -38.777,-148.6154 37.5822,-191.0072 63.8564,11.583 134.05009,18.7299 119.29849,85.3385 122.6103,-40.0782 249.0844,-73.6177 269.0282,-287.4392 -56.8562,-143.4137 -197.1355,-170.035 -332.78939,-203.1319 1.7743,94.7989 -39.2582,139.6563 -134.91509,120.7854 -26.52949,-28.6496 -62.79297,-49.9987 -26.99406,-125.3946 l -112.85072,-71.1906 -122.94426,-790.252 -40.1056,11.2418 -38.1186,-123.34 141.59725,-22.317 c 48.19458,-95.4414 132.50191,-112.6385 90.28106,-403.97999 l -31.03551,-1.9374 -15.06726,-81.5809 185.12721,-15.0178 C 726.61331,665.73904 814.4697,644.48568 859.56471,599.71359 c 71.0843,-17.92732 116.1514,26.58645 146.70179,105.94046 z"
       id="path16823"
       sodipodi:nodetypes="cccccccccccccccccccccccccccccccccccccccccccccccccccccccccccccc"
       inkscape:export-filename="D:\Pictures\project\board_blank.png"
       inkscape:export-xdpi="96"
       inkscape:export-ydpi="96" />
    <path
       style="fill:none;stroke:#000000;stroke-width:1px;stroke-linecap:butt;stroke-linejoin:miter;stroke-opacity:1"
       d="m 410.97013,-16.182854 v 0"
       id="path16825"
       inkscape:export-filename="D:\Pictures\project\board_blank.png"
       inkscape:export-xdpi="96"
       inkscape:export-ydpi="96" />
    <path
       style="fill:#808000;stroke:#ffff00;stroke-width:0;stroke-linecap:butt;stroke-linejoin:miter;stroke-miterlimit:4;stroke-dasharray:none;stroke-opacity:1"
       d="m 868.91279,667.89672 c 474.98511,-180.15679 987.74341,-250.4278 1583.61471,-78.91558 43.9391,-95.7616 77.8155,-80.83194 114.1333,-92.75904 118.9775,95.52127 73.1206,118.42842 70.6412,174.85407 l 198.3065,-5.94777 -55.1052,75.36748 c -8.2439,155.1524 66.1139,236.881 155.998,304.80852 l -17.4553,30.0668 202.6996,-2.9244 -44.548,111.7648 122.3088,682.9976 -79.81,45.4178 -77.1201,163.7972 -57.5113,-62.2377 c -144.8835,37.0453 -134.3313,136.2649 -179.1794,213.3243 77.3348,94.7935 141.7715,223.1221 271.3709,182.0277 20.3426,-19.6376 -47.7514,-129.4507 100.8887,-97.3923 36.9252,24.7833 85.462,40.0662 36.465,135.1496 l 152.5553,37.0144 145.2431,682.5965 81.297,4.1587 20.4291,69.0865 -112.6164,13.1299 c 27.8858,59.2577 54.859,118.6169 11.3096,185.812 -34.0649,32.4581 -69.7578,62.6098 -199.1086,-39.9206 -402.2918,88.3138 -494.36,233.032 -641.5039,367.7363 85.5429,64.1797 104.7207,135.3452 36.0145,215.7617 -129.2877,46.7882 -137.6227,-7.2176 -175.4895,-36.6135 l -38.7358,18.6584 155.0657,818.8319 -510.7658,78.995 -121.3401,-698.5153 c -76.6805,13.3447 -138.6986,-4.7303 -158.8364,-112.5486 l 35.8289,-103.075 c -263.0314,-166.8749 -588.2337,-74.704 -896.6727,-52.3812 -74.7552,188.8016 -149.51041,169.9855 -224.26561,152.8362 -45.91777,-1.4117 -44.47417,-84.0141 -34.17437,-181.7988 v 0 l -115.63971,17.5229 -9.58826,-51.9151 3.18997,-65.7791 104.7989,-34.6944 -104.11933,-812.9024 59.33151,-10.958 32.57192,-52.0323 c -69.3628,-90.9658 -38.777,-148.6154 37.5822,-191.0072 63.85637,11.583 134.05007,18.7299 119.29847,85.3385 122.61031,-40.0782 249.08441,-73.6177 269.02821,-287.4392 -56.8562,-143.4137 -197.1355,-170.035 -332.78941,-203.1319 1.7743,94.7989 -39.2582,139.6563 -134.91506,120.7854 -26.52949,-28.6496 -62.79297,-49.9987 -26.99406,-125.3946 l -112.85072,-71.1906 -122.94426,-790.252 -40.1056,11.2418 -38.1186,-123.34 141.59725,-22.317 c 48.19458,-95.4414 132.50191,-112.6385 90.28106,-403.98002 l -31.03551,-1.9374 -15.06726,-81.5809 185.12721,-15.0178 C 589.25962,627.98171 677.11601,606.72835 722.21102,561.95626 c 71.08427,-17.92732 116.15137,26.58645 146.70177,105.94046 z"
       id="path24766"
       sodipodi:nodetypes="cccccccccccccccccccccccccccccccccccccccccccccccccccccccccccccc"
       inkscape:export-filename="D:\Pictures\project\board_blank.png"
       inkscape:export-xdpi="96"
       inkscape:export-ydpi="96" />
  </g>
</svg>
