<?xml version="1.0" encoding="UTF-8" standalone="no"?>
<!-- Created with Inkscape (http://www.inkscape.org/) -->

<svg
   width="197mm"
   height="254mm"
   viewBox="0 0 197 254"
   version="1.1"
   id="svg96765"
   inkscape:version="1.1.1 (3bf5ae0d25, 2021-09-20)"
   sodipodi:docname="label-2.svg"
   xmlns:inkscape="http://www.inkscape.org/namespaces/inkscape"
   xmlns:sodipodi="http://sodipodi.sourceforge.net/DTD/sodipodi-0.dtd"
   xmlns="http://www.w3.org/2000/svg"
   xmlns:svg="http://www.w3.org/2000/svg">
  <sodipodi:namedview
     id="namedview96767"
     pagecolor="#ffffff"
     bordercolor="#666666"
     borderopacity="1.0"
     inkscape:pageshadow="2"
     inkscape:pageopacity="0.0"
     inkscape:pagecheckerboard="0"
     inkscape:document-units="mm"
     showgrid="false"
     inkscape:zoom="0.62162861"
     inkscape:cx="555.7981"
     inkscape:cy="450.42972"
     inkscape:window-width="1920"
     inkscape:window-height="986"
     inkscape:window-x="-11"
     inkscape:window-y="-11"
     inkscape:window-maximized="1"
     inkscape:current-layer="layer2"
     inkscape:showpageshadow="false"
     showborder="false" />
  <defs
     id="defs96762">
    <rect
       x="47.234737"
       y="1041.9427"
       width="152.81827"
       height="51.402512"
       id="rect154443" />
    <rect
       x="172.26787"
       y="326.4754"
       width="489.01849"
       height="170.87862"
       id="rect102843" />
    <rect
       x="117.89508"
       y="560.53754"
       width="539.10205"
       height="57.875767"
       id="rect94684" />
    <rect
       x="117.89508"
       y="560.53754"
       width="539.10205"
       height="57.875767"
       id="rect94876" />
    <rect
       x="117.89508"
       y="560.53754"
       width="539.10205"
       height="57.875767"
       id="rect94684-0" />
    <rect
       x="47.234737"
       y="1041.9427"
       width="152.81827"
       height="51.402512"
       id="rect154443-0" />
  </defs>
  <g
     inkscape:label="Layer 1"
     inkscape:groupmode="layer"
     id="layer1"
     sodipodi:insensitive="true">
    <text
       xml:space="preserve"
       transform="scale(0.26458333)"
       id="text102841"
       style="font-style:normal;font-weight:normal;font-size:40px;line-height:1.25;font-family:sans-serif;white-space:pre;shape-inside:url(#rect102843);fill:#000000;fill-opacity:1;stroke:none" />
    <rect
       style="opacity:0.671523;fill:#ffcc00;fill-opacity:1;stroke:#ff2a2a;stroke-width:0.262357;stroke-linecap:butt;stroke-linejoin:round;stroke-miterlimit:4.8;stroke-dasharray:none"
       id="rect200820"
       width="196.73764"
       height="253.73764"
       x="0.5031448"
       y="0.96639162" />
    <rect
       style="opacity:0.671523;fill:#a02c2c;fill-opacity:0;stroke:#d35f5f;stroke-width:0.264583;stroke-linecap:butt;stroke-linejoin:round;stroke-miterlimit:4.8;stroke-dasharray:none"
       id="rect201022"
       width="1.7025172"
       height="0.85125858"
       x="103.967"
       y="246.80209" />
  </g>
  <g
     inkscape:groupmode="layer"
     id="layer2"
     inkscape:label="Layer 2">
    <g
       aria-label="c5"
       transform="matrix(1.0795923,0,0,0.92627558,-17.585699,0)"
       id="text217238"
       style="font-size:132.672px;line-height:1.25;font-family:Forte;-inkscape-font-specification:'Forte, Normal';fill:#ff0000;stroke-width:3.3168">
      <g
         id="g250816">
        <path
           d="m 86.376944,69.483998 q 4.923374,0.194344 7.838531,2.850376 2.915156,2.65605 2.915156,7.125992 0,3.886904 -2.267344,7.838582 -2.202562,3.951688 -5.635969,6.478178 -3.368624,2.526486 -6.802031,2.526486 -2.008218,0 -2.008218,-1.425198 0,-0.518254 0.777375,-2.267366 2.526468,-4.275592 2.526468,-9.846822 0,-2.78561 -0.647812,-2.78561 -0.906938,0 -2.59125,2.33215 -1.684313,2.332136 -2.850375,5.506436 -2.008219,4.988196 -3.368625,10.624206 -1.295625,5.635982 -1.295625,9.522852 0,4.40512 1.295625,6.93159 1.360406,2.52647 3.757312,2.52647 2.202563,0 5.895094,-2.33212 3.692531,-2.33213 6.996375,-5.76553 1.360406,-1.7491 2.396906,-1.7491 1.55475,0 1.55475,1.7491 0,7.96809 -6.219,14.44621 -4.275562,4.27557 -9.84675,6.9316 -5.506406,2.59125 -9.911531,2.59125 -7.708968,0 -12.826687,-4.8586 -5.117718,-4.85859 -5.117718,-12.24365 0,-7.38506 3.239062,-15.48272 3.303844,-8.162496 8.939812,-15.482824 5.70075,-7.320332 12.891469,-12.243738 5.1825,-3.4982 10.105875,-3.4982 z"
           id="path235676" />
        <path
           d="m 125.56399,92.240652 -5.91345,9.809838 0.31964,0.29954 q 5.67372,-2.24652 10.06885,-3.220028 4.39513,-0.973498 8.63044,-0.973498 10.94787,0 17.02113,4.867486 6.07328,4.79258 6.07328,13.55403 0,4.34327 -1.35849,9.21074 -1.27859,4.79258 -3.91568,9.73493 -2.55716,4.86747 -6.23308,9.58517 -3.59602,4.7177 -8.95008,9.80981 -7.83134,7.41354 -15.74256,11.60705 -7.83132,4.19351 -14.06442,4.19351 -4.55495,0 -8.95008,-1.64746 -4.395133,-1.72233 -7.751415,-4.79258 -5.913447,-5.54142 -5.913447,-15.65078 0,-13.47913 8.230879,-21.11732 4.075483,-3.89397 9.509453,-6.36515 5.5139,-2.54606 9.58938,-2.54606 4.31522,0 4.31522,2.24653 v 0.22465 q -3.43619,3.81908 -5.19424,6.51492 -1.67815,2.62094 -3.5161,7.11399 -3.11655,7.48841 -3.11655,17.448 0,7.71306 3.27637,7.71306 4.2353,0 9.18981,-4.64282 5.43399,-5.31677 9.42956,-13.1796 3.99557,-7.86283 3.99557,-13.32937 0,-7.63818 -3.43619,-11.23262 -3.35628,-3.66932 -10.78805,-3.66932 -4.1554,0 -11.18761,1.42279 -3.83575,0.59908 -4.07548,0.59908 -2.31742,0 -3.91566,-1.4228 -1.518316,-1.49768 -1.518316,-3.81908 0,-1.947 2.157606,-8.08749 3.43619,-10.334032 7.19203,-18.721053 l 0.47947,-1.048378 q 0.39957,-0.74884 1.3585,-2.770712 2.31743,-5.316772 4.07548,-6.664685 1.83796,-1.347915 6.55275,-1.347915 15.10325,0 22.77475,0.299536 1.75806,0 3.03664,0.149769 h 1.03886 q 5.99335,0.299537 8.15095,0.973493 2.15762,0.673957 2.15762,2.096756 0,1.273029 -1.83796,3.893974 -1.75806,2.546059 -4.39513,4.867467 -4.47505,4.19351 -9.26973,6.514918 -4.79469,2.246523 -9.42955,2.246523 -1.99779,0 -6.31301,-0.449305 -1.27858,-0.299536 -1.35849,-0.299536 z"
           id="path235678"
           style="fill:#008000;fill-opacity:1;stroke-width:3.96068" />
      </g>
    </g>
    <g
       id="g176084"
       transform="translate(-17.45127,-40.539342)">
      <path
         style="fill:#ff0000;stroke:#000000;stroke-width:0.0609512px;stroke-linecap:butt;stroke-linejoin:miter;stroke-opacity:1"
         d="m 109.16673,57.155956 c 1.58133,1.277341 1.83205,2.855366 1.87866,4.479512 2.98262,-0.807055 5.96922,-1.584541 9.45806,1.383383 2.50221,3.334737 4.78613,7.605637 1.94344,13.570287 -1.59717,2.252 -2.10649,6.25974 -8.48634,7.1804 -1.28743,-0.0648 -3.07436,0.0863 -4.01644,-0.85638 -4.56167,1.87562 -8.48634,-0.46112 -8.48634,-0.46112 -0.0676,0.0206 -3.406851,-0.14351 -4.534691,-9.74953 -0.34306,-4.03023 1.15793,-8.34342 4.405121,-11.330538 2.15937,-1.431916 4.31875,-1.042881 6.47813,-0.395248 l 2.33212,0.658746 c 0.0325,-3.030483 -2.30992,-3.171608 -3.04475,-4.329428 z"
         id="path94674"
         sodipodi:nodetypes="ccccccccccccc" />
      <path
         style="fill:#008000;stroke:#000000;stroke-width:0.0609512px;stroke-linecap:butt;stroke-linejoin:miter;stroke-opacity:1"
         d="m 111.04539,61.635468 c 0.59787,-1.300849 -0.22015,-2.916408 2.33212,-4.545379 4.176,-0.53651 6.76171,-2.172444 7.13462,-3.227887 -0.2027,1.383374 -0.61709,4.216006 -1.94343,5.599388 -2.02356,1.391173 -1.23115,0.790655 -2.91517,1.44925 z"
         id="path94676"
         sodipodi:nodetypes="cccccc" />
      <text
         xml:space="preserve"
         transform="matrix(0.19974322,0,0,0.22463268,52.635202,-42.500444)"
         id="text94680"
         style="font-style:normal;font-variant:normal;font-weight:normal;font-stretch:normal;font-size:40px;line-height:1.25;font-family:'Snowburst One';-inkscape-font-specification:'Snowburst One, Normal';font-variant-ligatures:normal;font-variant-caps:normal;font-variant-numeric:normal;font-variant-east-asian:normal;white-space:pre;shape-inside:url(#rect94684-0);fill:#ff0000;fill-opacity:1;stroke:none;stroke-width:3.50929;stroke-miterlimit:4;stroke-dasharray:none"><tspan
           x="117.89453"
           y="598.52011"
           id="tspan250851">Cawston Cider Co</tspan></text>
    </g>
    <text
       xml:space="preserve"
       style="font-style:normal;font-weight:normal;font-size:49.1588px;line-height:1.25;font-family:sans-serif;-inkscape-font-specification:'Snowburst One, Normal';fill:#ff6600;fill-opacity:1;stroke:none;stroke-width:0.236886"
       x="22.174576"
       y="204.82964"
       id="text173941"
       transform="scale(0.98419656,1.0160572)"><tspan
         sodipodi:role="line"
         id="tspan173939"
         style="fill:#ff6600;stroke-width:0.236886"
         x="22.174576"
         y="204.82964">CIDER</tspan></text>
    <text
       xml:space="preserve"
       style="font-style:normal;font-variant:normal;font-weight:normal;font-stretch:normal;font-size:10.5833px;line-height:1.25;font-family:'Snowburst One';-inkscape-font-specification:'Snowburst One, Normal';font-variant-ligatures:normal;font-variant-caps:normal;font-variant-numeric:normal;font-variant-east-asian:normal;fill:#ff0000;fill-opacity:1;stroke:none;stroke-width:0.0700042"
       x="10.090211"
       y="225.95206"
       id="text143464"><tspan
         sodipodi:role="line"
         id="tspan143462"
         style="font-style:normal;font-variant:normal;font-weight:normal;font-stretch:normal;font-size:10.5833px;font-family:'Snowburst One';-inkscape-font-specification:'Snowburst One, Normal';font-variant-ligatures:normal;font-variant-caps:normal;font-variant-numeric:normal;font-variant-east-asian:normal;fill:#ff0000;fill-opacity:1;stroke-width:0.0700042"
         x="10.090211"
         y="225.95206">Cawston Cider Co Craft Cider</tspan></text>
    <text
       xml:space="preserve"
       transform="matrix(0.26458333,0,0,0.26458333,-3.1424397,-40.817984)"
       id="text154441"
       style="font-style:normal;font-weight:normal;font-size:40px;line-height:1.25;font-family:sans-serif;white-space:pre;shape-inside:url(#rect154443-0);fill:#ff0000;fill-opacity:1;stroke:none"><tspan
         x="47.234375"
         y="1077.334"
         id="tspan250853">500ml</tspan></text>
    <text
       xml:space="preserve"
       style="font-style:normal;font-weight:normal;font-size:10.5833px;line-height:1.25;font-family:sans-serif;fill:#ff0000;fill-opacity:1;stroke:none;stroke-width:0.264583"
       x="145.72525"
       y="244.22668"
       id="text161039"><tspan
         sodipodi:role="line"
         id="tspan161037"
         style="fill:#ff0000;fill-opacity:1;stroke-width:0.264583"
         x="145.72525"
         y="244.22668">ABV 6%</tspan></text>
    <rect
       style="opacity:0.671523;fill:#ffcc00;fill-opacity:0;stroke:#008000;stroke-width:0.264815;stroke-linecap:butt;stroke-linejoin:round;stroke-miterlimit:4.8;stroke-dasharray:none"
       id="rect169659"
       width="196.73518"
       height="253.73518"
       x="0.5031448"
       y="0.96639162" />
  </g>
</svg>
