<?xml version="1.0" encoding="UTF-8" standalone="no"?>
<!-- Created with Inkscape (http://www.inkscape.org/) -->

<svg
   width="600"
   height="316"
   viewBox="0 0 158.75 83.608332"
   version="1.1"
   id="svg343178"
   inkscape:version="1.1.1 (3bf5ae0d25, 2021-09-20)"
   sodipodi:docname="logo for video 600x316.svg"
   xmlns:inkscape="http://www.inkscape.org/namespaces/inkscape"
   xmlns:sodipodi="http://sodipodi.sourceforge.net/DTD/sodipodi-0.dtd"
   xmlns="http://www.w3.org/2000/svg"
   xmlns:svg="http://www.w3.org/2000/svg">
  <sodipodi:namedview
     id="namedview343180"
     pagecolor="#ffffff"
     bordercolor="#666666"
     borderopacity="1.0"
     inkscape:pageshadow="2"
     inkscape:pageopacity="0.0"
     inkscape:pagecheckerboard="0"
     inkscape:document-units="px"
     showgrid="false"
     inkscape:showpageshadow="false"
     units="px"
     showborder="false"
     inkscape:zoom="0.7198092"
     inkscape:cx="121.55999"
     inkscape:cy="450.11928"
     inkscape:window-width="1920"
     inkscape:window-height="986"
     inkscape:window-x="-11"
     inkscape:window-y="-11"
     inkscape:window-maximized="1"
     inkscape:current-layer="layer1" />
  <defs
     id="defs343175">
    <rect
       x="117.89508"
       y="560.53754"
       width="539.10205"
       height="57.875767"
       id="rect94684" />
  </defs>
  <g
     inkscape:label="Layer 1"
     inkscape:groupmode="layer"
     id="layer1">
    <g
       id="g4227">
      <text
         xml:space="preserve"
         transform="matrix(0.41731273,0,0,0.48635704,-47.40477,-206.95909)"
         id="text94680"
         style="font-style:normal;font-variant:normal;font-weight:normal;font-stretch:normal;font-size:40px;line-height:1.25;font-family:'Snowburst One';-inkscape-font-specification:'Snowburst One, Normal';font-variant-ligatures:normal;font-variant-caps:normal;font-variant-numeric:normal;font-variant-east-asian:normal;white-space:pre;shape-inside:url(#rect94684);fill:#ff0000;fill-opacity:1;stroke:none;stroke-width:3.50929;stroke-miterlimit:4;stroke-dasharray:none"><tspan
           x="117.89453"
           y="598.52011"
           id="tspan4255">Cawston Cider Co</tspan></text>
      <g
         id="g344873"
         transform="matrix(2.254561,0,0,2.254561,-2.8132534,-2.0785944)">
        <path
           style="fill:#ff0000;stroke:#000000;stroke-width:0.0574985px;stroke-linecap:butt;stroke-linejoin:miter;stroke-opacity:1"
           d="m 36.652333,4.8291972 c 1.46538,1.2266683 1.697716,2.7420922 1.740908,4.3018076 2.763924,-0.7750386 5.531537,-1.5216813 8.764552,1.3285042 2.31874,3.202445 4.435192,7.303918 1.800937,13.031945 -1.48005,2.162666 -1.952029,6.011421 -7.864075,6.895556 -1.193034,-0.06226 -2.848941,0.08283 -3.721943,-0.822412 -4.227187,1.801215 -7.864082,-0.442823 -7.864082,-0.442823 -0.06264,0.01973 -3.157045,-0.137814 -4.202186,-9.362765 -0.317905,-3.870343 1.073026,-8.012435 4.082117,-10.8810503 2.001034,-1.3751106 4.002079,-1.0015094 6.003123,-0.3795678 l 2.161118,0.6326129 C 37.582922,6.2207427 35.412256,6.0852156 34.731307,4.9733267 Z"
           id="path94674"
           sodipodi:nodetypes="ccccccccccccc" />
        <path
           style="fill:#008000;stroke:#000000;stroke-width:0.0574985px;stroke-linecap:butt;stroke-linejoin:miter;stroke-opacity:1"
           d="M 38.393241,9.1310048 C 38.947273,7.8817609 38.189234,6.3302921 40.554367,4.7659433 44.424163,4.2507169 46.820274,2.6796808 47.165844,1.6661076 46.977999,2.9946021 46.593999,5.7148627 45.364915,7.0433655 43.489729,8.3793498 44.224033,7.8026548 42.663499,8.4351232 Z"
           id="path94676"
           sodipodi:nodetypes="cccccc" />
        <path
           style="fill:#ff0000;stroke:#000000;stroke-width:0.0574985px;stroke-linecap:butt;stroke-linejoin:miter;stroke-opacity:1"
           d="m 36.652333,4.8291972 c 1.46538,1.2266683 1.697716,2.7420922 1.740908,4.3018076 2.763924,-0.7750386 5.531537,-1.5216813 8.764552,1.3285042 2.31874,3.202445 4.435192,7.303918 1.800937,13.031945 -1.48005,2.162666 -1.952029,6.011421 -7.864075,6.895556 -1.193034,-0.06226 -2.848941,0.08283 -3.721943,-0.822412 -4.227187,1.801215 -7.864082,-0.442823 -7.864082,-0.442823 -0.06264,0.01973 -3.157045,-0.137814 -4.202186,-9.362765 -0.317905,-3.870343 1.073026,-8.012435 4.082117,-10.8810503 2.001034,-1.3751106 4.002079,-1.0015094 6.003123,-0.3795678 l 2.161118,0.6326129 C 37.582922,6.2207427 35.412256,6.0852156 34.731307,4.9733267 Z"
           id="path94682"
           sodipodi:nodetypes="ccccccccccccc" />
      </g>
    </g>
  </g>
</svg>
