<?xml version="1.0" encoding="UTF-8" standalone="no"?>
<!-- Created with Inkscape (http://www.inkscape.org/) -->

<svg
   width="600"
   height="316"
   viewBox="0 0 158.75 83.608332"
   version="1.1"
   id="svg343178"
   inkscape:version="1.1.1 (3bf5ae0d25, 2021-09-20)"
   sodipodi:docname="logo for video 600x316_2.svg"
   xmlns:inkscape="http://www.inkscape.org/namespaces/inkscape"
   xmlns:sodipodi="http://sodipodi.sourceforge.net/DTD/sodipodi-0.dtd"
   xmlns="http://www.w3.org/2000/svg"
   xmlns:svg="http://www.w3.org/2000/svg">
  <sodipodi:namedview
     id="namedview343180"
     pagecolor="#ffffff"
     bordercolor="#666666"
     borderopacity="1.0"
     inkscape:pageshadow="2"
     inkscape:pageopacity="0.0"
     inkscape:pagecheckerboard="0"
     inkscape:document-units="px"
     showgrid="false"
     inkscape:showpageshadow="false"
     units="px"
     showborder="false"
     inkscape:zoom="0.7198092"
     inkscape:cx="129.89553"
     inkscape:cy="450.11928"
     inkscape:window-width="1920"
     inkscape:window-height="986"
     inkscape:window-x="-11"
     inkscape:window-y="-11"
     inkscape:window-maximized="1"
     inkscape:current-layer="layer1" />
  <defs
     id="defs343175">
    <rect
       x="117.89508"
       y="560.53754"
       width="539.10205"
       height="57.875767"
       id="rect94684" />
  </defs>
  <g
     inkscape:label="Layer 1"
     inkscape:groupmode="layer"
     id="layer1">
    <g
       aria-label="Cawston Cider Co"
       transform="matrix(0.41731273,0,0,0.48635704,-47.40477,-206.95909)"
       id="text94680"
       style="font-size:40px;line-height:1.25;font-family:'Snowburst One';-inkscape-font-specification:'Snowburst One, Normal';white-space:pre;shape-inside:url(#rect94684);fill:#ff0000;stroke-width:3.50929" />
    <g
       id="g4360">
      <path
         d="m 144.61328,599.5748 q -0.54687,0 -1.25,-0.58594 -0.68359,-0.56641 -0.97656,-0.74219 -0.625,-0.35156 -1.3086,-0.39062 -0.66406,-0.0391 -1.17187,0.0586 -0.48828,0.0977 -1.19141,0.21484 -2.73437,0.41016 -4.45312,0.29297 -3.125,-0.21484 -4.58985,-0.70312 -1.46484,-0.48828 -2.71484,-1.19141 -1.23047,-0.72266 -2.42187,-1.77734 -1.17188,-1.05469 -2.07032,-2.51953 -2.03125,-3.22266 -2.03125,-7.57813 0,-8.67187 7.34375,-12.26562 4.78516,-2.36329 12.36328,-2.48047 1.19141,0 2.28516,-0.91797 0.3125,-0.27344 0.50781,-0.58594 0.42969,-0.66406 1.13282,-0.66406 0.72265,0 0.72265,0.66406 0,0 -0.29297,1.21094 -0.41015,1.93359 -0.41015,3.55469 l 0.0586,0.82031 q 0,0.70312 -0.54687,0.70312 -0.48829,0 -1.03516,-0.78125 -0.52734,-0.80078 -1.11328,-1.23047 -0.56641,-0.42968 -1.21094,-0.64453 -0.85937,-0.27343 -2.8125,-0.27343 -1.93359,0 -3.78906,0.35156 -1.85547,0.35156 -3.51563,1.05469 -1.66015,0.68359 -3.08593,1.71875 -1.40625,1.03515 -2.44141,2.42187 -2.20703,2.94922 -2.20703,6.91406 0,6.67969 4.33594,9.88282 3.53515,2.61718 8.51562,2.61718 4.58984,0 6.32813,-1.67968 0.41015,-0.41016 0.78125,-1.13282 0.37109,-0.72265 0.9375,-1.25 0.5664,-0.52734 0.97656,-0.52734 0.68359,0 0.68359,1.13281 l -0.15625,1.9336 q 0,1.11328 0.3125,2.7539 0.3125,1.6211 -0.48828,1.6211 z"
         id="path4263"
         style="font-size:40px;line-height:1.25;font-family:'Snowburst One';-inkscape-font-specification:'Snowburst One, Normal';white-space:pre;shape-inside:url(#rect94684);fill:#ff0000;stroke-width:3.50929"
         transform="matrix(0.41731274,0,0,0.48635705,-47.404771,-206.95909)" />
      <path
         d="m 174.39844,598.46151 q -0.91797,0 -0.66407,-1.28906 0.50782,-2.38281 0.27344,-3.00781 l -3.59375,-5.64453 q -1.03515,-1.66016 -2.1875,-3.65235 -0.89844,2.44141 -1.67969,4.00391 -0.76171,1.5625 -2.08984,3.16406 -1.32812,1.60157 -2.59766,2.73438 -4.27734,3.80859 -7.83203,3.80859 -1.875,0 -2.98828,-1.21094 -1.30859,-1.5039 -0.44922,-4.35546 1.13282,-3.78907 5.46875,-6.89454 3.90625,-2.8125 8.33985,-3.84765 1.1914,-0.29297 2.1289,-0.39063 -2.1289,-3.75 -2.77343,-5.09765 -0.35157,-0.42969 -0.9961,-0.64453 -2.40234,-0.82032 -2.73437,-1.01563 -0.33203,-0.21484 -0.33203,-0.48828 0,-0.625 1.01562,-0.9375 1.75781,-0.48828 3.10547,-1.58203 0.76172,-0.64453 1.48437,-0.64453 0.72266,0 0.72266,0.76172 l -0.72266,2.38281 q -0.21484,0.85937 0.0391,1.34765 l 4.14062,7.61719 q 2.69531,4.82422 4.98047,8.06641 0.80078,1.15234 1.23047,1.44531 0.44922,0.27344 1.07422,0.52734 0.625,0.25391 1.1914,0.48829 1.38672,0.58593 1.38672,1.07421 0,0.54688 -0.99609,0.9375 -0.97656,0.39063 -1.60156,0.80079 -0.60547,0.41015 -1.01563,0.76171 -0.39062,0.33204 -0.68359,0.56641 -0.29297,0.21484 -0.64453,0.21484 z m -21.79688,-5.17578 q -0.2539,0.85938 -0.2539,1.36719 0,0.50781 0.11718,0.85938 0.11719,0.35156 0.33203,0.625 0.50782,0.58593 1.15235,0.58593 1.17187,0 2.65625,-0.58593 1.48437,-0.60547 2.65625,-1.48438 1.17187,-0.89844 2.28515,-2.05078 2.38282,-2.48047 3.69141,-5.03906 1.17188,-2.22657 1.79688,-4.10157 -3.08594,0.27344 -6.58204,2.01172 -3.20312,1.58203 -5.39062,3.94532 -1.89453,2.05078 -2.46094,3.86718 z"
         id="path4265"
         style="font-size:40px;line-height:1.25;font-family:'Snowburst One';-inkscape-font-specification:'Snowburst One, Normal';white-space:pre;shape-inside:url(#rect94684);fill:#ff0000;stroke-width:3.50929"
         transform="matrix(0.41731274,0,0,0.48635705,-47.404771,-206.95909)" />
      <path
         d="m 208.24609,568.79355 q 1.44532,-0.41016 1.44532,0.37109 0,0.46875 -1.44532,3.02734 -0.50781,0.87891 -0.50781,1.23047 0,0.35156 0.0391,0.95703 0.0391,0.58594 0.0781,1.48438 0.0586,0.89844 0.11719,2.03125 0.0781,1.13281 0.11718,2.34375 0.21485,5.17578 0.0391,7.08984 -0.17579,1.89453 -0.46875,3.37891 -0.29297,1.48437 -0.78125,2.89062 -0.46875,1.38672 -1.13282,2.46094 -1.48437,2.36328 -3.63281,2.36328 -2.51953,0 -3.90625,-2.79297 -0.95703,-1.97265 -1.34766,-3.47656 -0.37109,-1.50391 -0.58593,-2.38281 -0.19532,-0.87891 -0.3711,-1.60156 l -0.37109,-1.77735 -0.37109,2.05078 q -1.07422,5.41016 -2.28516,7.65625 -0.99609,1.81641 -1.64063,2.38282 -1.07421,0.95703 -2.03125,0.95703 -1.85546,0 -2.73437,-1.77735 -1.15234,-2.24609 -2.46094,-9.25781 -2.1289,-10.11719 -2.20703,-11.09375 -0.13672,-0.91797 -2.48047,-1.99219 -0.91797,-0.41015 -1.09375,-0.60547 -0.15625,-0.21484 -0.15625,-0.44921 0,-0.625 1.44531,-0.80079 1.81641,-0.23437 2.69532,-0.625 0.89843,-0.41015 1.30859,-0.60546 2.07031,-0.97657 2.07031,0.0391 0,0.42969 -0.39062,1.13281 -0.39063,0.68359 -0.6836,1.25 -0.27343,0.54688 -0.44921,0.97656 -0.3125,0.80078 -0.3125,1.58203 0,0.78125 0.21484,2.10938 0.21484,1.32812 0.56641,2.8125 0.0586,0.3125 1.52343,6.23047 l 0.76172,3.88672 q 1.11328,5.29297 2.46094,5.29297 0.87891,0 2.24609,-2.85157 1.15235,-2.46093 1.42578,-3.86718 0.27344,-1.42579 0.48829,-2.38282 0.21484,-0.97656 0.41015,-2.05078 0.85938,-4.72656 0.25391,-7.7539 -0.19531,-0.9961 -1.67969,-2.14844 -0.3125,-0.25391 -0.58594,-0.3711 -0.2539,-0.13671 -0.54687,-0.42968 -0.27344,-0.29297 -0.27344,-0.56641 0,-0.54687 1.13281,-0.54687 1.13282,0 2.05078,-0.0781 0.9375,-0.0781 1.66016,-0.17578 1.875,-0.25391 2.26563,-0.25391 0.89843,0 -0.19532,1.5625 -0.50781,0.74219 -1.01562,1.28907 -0.48828,0.54687 -0.60547,0.68359 -0.0977,0.11719 -0.13672,0.29297 -0.0391,0.17578 -0.0391,0.48828 v 0.89844 q 0,1.97265 0.39062,3.20312 0.76172,4.53125 1.11328,6.07422 0.87891,3.71094 2.16797,6.11328 0.54688,1.07422 1.64063,1.54297 1.66015,0.66406 2.7539,-1.46484 1.11329,-2.2461 1.42579,-3.4375 1.5039,-5.64453 0.54687,-14.49219 -0.29297,-2.67578 -0.44922,-3.04688 -0.15625,-0.37109 -0.44922,-0.58593 -0.29297,-0.23438 -0.66406,-0.42969 -0.37109,-0.19531 -0.76172,-0.37109 -0.39062,-0.19532 -0.72265,-0.39063 -1.21094,-0.80078 -0.50782,-1.38672 0.23438,-0.19531 0.87891,-0.3125 0.66406,-0.11719 1.25,-0.2539 0.58594,-0.15625 1.07422,-0.3125 z"
         id="path4267"
         style="font-size:40px;line-height:1.25;font-family:'Snowburst One';-inkscape-font-specification:'Snowburst One, Normal';white-space:pre;shape-inside:url(#rect94684);fill:#ff0000;stroke-width:3.50929"
         transform="matrix(0.41731274,0,0,0.48635705,-47.404771,-206.95909)" />
      <path
         d="m 224.47656,576.52792 q 0,0.58594 -0.33203,0.58594 -0.3125,0 -0.66406,-0.27344 -0.33203,-0.27344 -0.66406,-0.60547 -0.91797,-0.8789 -1.23047,-0.89844 -0.3125,-0.0391 -0.76172,0.0195 -0.44922,0.0391 -0.95703,0.17578 -0.50782,0.13672 -1.03516,0.37109 -0.52734,0.23438 -0.9375,0.625 -0.97656,0.85938 -0.97656,2.1875 0,1.52344 2.65625,3.51563 2.07031,1.5625 2.94922,2.36328 0.8789,0.80078 1.46484,1.58203 1.30859,1.77734 1.30859,3.78906 0,3.80859 -4.25781,5.58594 -1.36719,0.58594 -2.10937,0.58594 -0.74219,0 -1.28907,0.39062 -0.52734,0.39063 -0.97656,0.85938 -0.44922,0.44921 -0.80078,0.83984 -0.33203,0.39062 -0.52734,0.39062 -0.17578,0 -0.29297,-0.0976 -0.11719,-0.0977 -0.19531,-0.23438 -0.15625,-0.3125 -0.15625,-0.5664 l -0.0977,-3.45703 q 0,-2.38282 0.80078,-1.75782 0.19531,0.13672 0.50781,0.54688 0.33203,0.41015 0.52735,0.625 0.21484,0.21484 0.50781,0.35156 1.19141,0.56641 3.18359,-0.0195 2.32422,-0.68359 3.16407,-2.48047 1.32812,-2.83203 -2.46094,-6.05469 l -2.98828,-2.32422 q -2.73438,-2.16796 -2.73438,-4.43359 0,-3.39844 3.75,-4.64844 1.19141,-0.41015 2.1875,-0.41015 0.23438,0 1.01563,-0.74219 0.80078,-0.74219 1.09375,-0.99609 0.70312,-0.60547 0.83984,-0.60547 0.35156,0 0.35156,1.23047 l -0.0195,1.60156 z"
         id="path4269"
         style="font-size:40px;line-height:1.25;font-family:'Snowburst One';-inkscape-font-specification:'Snowburst One, Normal';white-space:pre;shape-inside:url(#rect94684);fill:#ff0000;stroke-width:3.50929"
         transform="matrix(0.41731274,0,0,0.48635705,-47.404771,-206.95909)" />
      <path
         d="m 234.59375,590.86386 0.0195,-0.60547 q 0.0977,-2.30469 0.29297,-4.57031 0.21484,-2.28516 0.39062,-4.72657 -1.11328,-0.0195 -1.54296,-0.0195 0,0 -0.54688,0 -0.76172,0 -1.21094,0.35157 -0.42968,0.33203 -0.72265,0.66406 -0.97657,1.05469 -1.48438,1.05469 -0.625,0 -0.625,-0.64454 0,-0.41015 0.27344,-1.5039 0.29297,-1.11328 0.29297,-2.05078 l -0.11719,-1.3086 q 0,-0.70312 0.44922,-0.70312 0.27344,0 1.01562,0.85937 0.74219,0.83985 1.13282,1.23047 0.39062,0.3711 0.68359,0.3711 1.21094,0 2.5,0.0781 0.33203,-4.31641 0.33203,-5.46875 0,-0.48828 -1.48437,-2.07031 -0.48828,-0.48828 -0.48828,-0.89844 0,-0.70312 1.11328,-0.70312 0.29297,0 0.78125,0.11718 0.50781,0.11719 1.1914,0.11719 l 2.40235,-0.17578 q 0.85937,0 0.85937,0.66406 0,0.41016 -0.37109,0.80078 -0.35156,0.39063 -0.46875,0.44922 -0.46875,0.23438 -0.9375,0.91797 -0.44922,0.68359 -0.52735,0.89844 -0.0586,0.19531 -0.11718,0.72265 -0.0586,0.50782 -0.13672,1.23047 l -0.27344,3.4961 q 5.89844,0.27343 6.77734,0.19531 0.87891,-0.0977 1.38672,-0.48828 0.52735,-0.39063 0.80078,-0.64453 0.29297,-0.25391 0.44922,-0.41016 0.15625,-0.17578 0.35157,-0.3125 0.42968,-0.35156 0.78125,-0.35156 0.66406,0 0.66406,1.26953 l -0.13672,2.32422 q 0,0.48828 0.11719,0.9375 0.42968,1.58203 -0.625,1.58203 -0.39063,0 -0.80078,-0.3125 -0.41016,-0.3125 -0.89844,-0.68359 -1.44531,-1.13282 -1.85547,-1.17188 l -7.12891,-0.33203 -0.39062,5.3125 q -0.42969,4.27734 -0.15625,5.72266 0.29297,1.44531 0.78125,2.22656 1.09375,1.77734 3.47656,1.77734 1.77734,0 3.75,-1.28906 0.44922,-0.29297 0.66406,-0.48828 0.21485,-0.21485 0.48828,-0.85938 0.29297,-0.64453 0.39063,-1.69922 0.0977,-1.05468 0.70312,-1.05468 0.44922,0 0.70313,0.44922 l 0.9375,1.89453 q 0.48828,0.89843 1.03516,1.38672 0.5664,0.46875 0.72265,0.625 0.17578,0.15625 0.17578,0.39062 0,0.64453 -1.09375,0.64453 L 247.25,595.94198 q -1.30859,0 -2.24609,0.52735 -4.17969,2.34375 -7.1875,0.83984 -3.22266,-1.62109 -3.22266,-6.44531 z"
         id="path4271"
         style="font-size:40px;line-height:1.25;font-family:'Snowburst One';-inkscape-font-specification:'Snowburst One, Normal';white-space:pre;shape-inside:url(#rect94684);fill:#ff0000;stroke-width:3.50929"
         transform="matrix(0.41731274,0,0,0.48635705,-47.404771,-206.95909)" />
      <path
         d="m 266.99609,595.86386 q -1.11328,0.3125 -1.99218,0.41015 -0.87891,0.0781 -1.28907,0.0781 -0.41015,0 -1.26953,-0.11719 -0.85937,-0.11719 -1.875,-0.44922 -1.01562,-0.35156 -2.07031,-0.99609 -1.05469,-0.66406 -1.91406,-1.73828 -1.95313,-2.40235 -1.95313,-6.28906 0,-3.71094 2.46094,-6.58204 2.24609,-2.65625 4.96094,-3.10546 1.71875,-0.52735 4.04297,-0.17579 2.22656,0.35157 4.12109,1.73829 2.16797,1.5625 3.08594,4.72656 0.46875,1.66015 0.46875,3.82812 0,2.16797 -0.64453,3.67188 -0.64454,1.48437 -1.64063,2.5 -0.99609,0.99609 -2.1875,1.60156 -1.19141,0.58594 -2.30469,0.89844 z m -5.91797,-1.89453 q 0.80079,0.3125 1.52344,0.44922 0.72266,0.11718 1.11328,0.11718 0.39063,0 1.09375,-0.0781 0.72266,-0.0781 1.60157,-0.33203 0.89843,-0.25391 1.85546,-0.72266 0.97657,-0.48828 1.77735,-1.30859 1.83594,-1.875 1.83594,-4.92188 0,-6.23047 -4.47266,-7.98828 -3.41797,-1.32812 -6.99219,0.56641 -0.48828,0.2539 -0.85937,0.42968 -1.38672,0.95704 -2.22657,3.00782 -0.72265,1.75781 -0.72265,3.49609 0,1.71875 0.39062,2.92969 0.41016,1.1914 1.03516,2.05078 0.64453,0.85937 1.44531,1.42578 0.80078,0.54688 1.60156,0.87891 z"
         id="path4273"
         style="font-size:40px;line-height:1.25;font-family:'Snowburst One';-inkscape-font-specification:'Snowburst One, Normal';white-space:pre;shape-inside:url(#rect94684);fill:#ff0000;stroke-width:3.50929"
         transform="matrix(0.41731274,0,0,0.48635705,-47.404771,-206.95909)" />
      <path
         d="m 285.6875,598.65683 q 0,0.54687 -0.60547,0.54687 l -1.01562,-0.0977 -3.51563,-0.13672 q -1.07422,-0.0586 -0.11719,-1.36719 l 1.21094,-1.77734 q 0.33203,-0.44922 0.39063,-0.80079 0.0586,-0.37109 0.11718,-1.13281 0.0586,-0.76172 0.11719,-1.89453 0.0586,-1.15234 0.11719,-2.57812 0.0781,-1.42579 0.15625,-2.94922 0.0781,-1.52344 0.13672,-3.04688 0.0586,-1.54297 0.0976,-2.87109 0.11719,-2.92969 0.11719,-4.39453 -0.13672,-0.58594 -0.78125,-1.40625 -0.64453,-0.83985 -0.91797,-1.17188 -0.27344,-0.35156 -0.27344,-0.52734 0,-0.42969 0.60547,-0.42969 0.60547,0 1.26953,0 0.6836,-0.0195 1.34766,-0.0391 l 2.55859,-0.23438 q 1.11329,0 0.23438,1.36719 l -1.89453,2.14844 q -0.29297,0.37109 -0.3125,0.54687 -0.0195,0.15625 -0.0586,0.72266 -0.0195,0.54687 -0.0586,1.30859 -0.0781,0.97657 -0.13672,3.04688 1.03516,-2.51953 2.8711,-4.60938 2.32421,-2.61718 4.98046,-2.61718 3.84766,0 5.83985,5.52734 0.60547,1.66016 1.01562,3.96484 0.42969,2.30469 0.6836,3.86719 0.27343,1.54297 0.42968,2.5 0.29297,1.71875 0.35157,1.95313 0.0586,0.23437 0.29297,0.58593 0.2539,0.35157 0.5664,0.6836 0.66406,0.70312 1.26953,0.99609 0.60547,0.27344 0.60547,0.72266 0,0.42968 -0.37109,0.5664 -0.35156,0.13672 -0.97656,0.23438 -1.99219,0.27344 -2.67579,0.60547 -0.83984,0.41015 -1.21093,0.41015 -0.95703,0 -0.60547,-0.95703 l 0.39062,-0.83984 q 0.82032,-1.95313 0.82032,-2.42188 0,-0.46875 -0.0781,-1.09375 -0.0586,-0.64453 -0.15625,-1.46484 -0.23437,-1.89453 -0.46875,-2.91016 -0.21484,-1.03515 -0.39062,-2.1289 -0.17579,-1.09375 -0.42969,-2.30469 -0.25391,-1.21094 -0.64453,-2.38281 -0.39063,-1.19141 -0.9961,-2.14844 -1.30859,-2.12891 -3.45703,-2.12891 -3.30078,0 -5.80078,5.27344 -1.83594,3.84766 -2.01172,6.48438 -0.41015,6.15234 -0.41015,6.71875 0,0.5664 0.19531,1.01562 0.19531,0.44922 0.44922,0.91797 l 1.03515,1.71875 q 0.0977,0.21484 0.0977,0.42969 z"
         id="path4275"
         style="font-size:40px;line-height:1.25;font-family:'Snowburst One';-inkscape-font-specification:'Snowburst One, Normal';white-space:pre;shape-inside:url(#rect94684);fill:#ff0000;stroke-width:3.50929"
         transform="matrix(0.41731274,0,0,0.48635705,-47.404771,-206.95909)" />
      <path
         d="m 347.58203,599.5748 q -0.54687,0 -1.25,-0.58594 -0.68359,-0.56641 -0.97656,-0.74219 -0.625,-0.35156 -1.3086,-0.39062 -0.66406,-0.0391 -1.17187,0.0586 -0.48828,0.0977 -1.19141,0.21484 -2.73437,0.41016 -4.45312,0.29297 -3.125,-0.21484 -4.58985,-0.70312 -1.46484,-0.48828 -2.71484,-1.19141 -1.23047,-0.72266 -2.42187,-1.77734 -1.17188,-1.05469 -2.07032,-2.51953 -2.03125,-3.22266 -2.03125,-7.57813 0,-8.67187 7.34375,-12.26562 4.78516,-2.36329 12.36328,-2.48047 1.19141,0 2.28516,-0.91797 0.3125,-0.27344 0.50781,-0.58594 0.42969,-0.66406 1.13282,-0.66406 0.72265,0 0.72265,0.66406 0,0 -0.29297,1.21094 -0.41015,1.93359 -0.41015,3.55469 l 0.0586,0.82031 q 0,0.70312 -0.54687,0.70312 -0.48829,0 -1.03516,-0.78125 -0.52734,-0.80078 -1.11328,-1.23047 -0.56641,-0.42968 -1.21094,-0.64453 -0.85937,-0.27343 -2.8125,-0.27343 -1.93359,0 -3.78906,0.35156 -1.85547,0.35156 -3.51563,1.05469 -1.66015,0.68359 -3.08593,1.71875 -1.40625,1.03515 -2.44141,2.42187 -2.20703,2.94922 -2.20703,6.91406 0,6.67969 4.33594,9.88282 3.53515,2.61718 8.51562,2.61718 4.58984,0 6.32813,-1.67968 0.41015,-0.41016 0.78125,-1.13282 0.37109,-0.72265 0.9375,-1.25 0.5664,-0.52734 0.97656,-0.52734 0.68359,0 0.68359,1.13281 l -0.15625,1.9336 q 0,1.11328 0.3125,2.7539 0.3125,1.6211 -0.48828,1.6211 z"
         id="path4277"
         style="font-size:40px;line-height:1.25;font-family:'Snowburst One';-inkscape-font-specification:'Snowburst One, Normal';white-space:pre;shape-inside:url(#rect94684);fill:#ff0000;stroke-width:3.50929"
         transform="matrix(0.41731274,0,0,0.48635705,-47.404771,-206.95909)" />
      <path
         d="m 355.62891,599.41855 q -0.9961,0 -0.9961,-0.74219 0,-0.3125 0.54688,-1.03516 0.54687,-0.74219 1.05468,-1.42578 0.52735,-0.70312 0.58594,-1.09375 L 357.25,578.96933 q -0.0195,-0.58594 -0.41016,-1.03516 -0.37109,-0.44922 -0.82031,-0.85937 -0.44922,-0.41016 -0.82031,-0.80079 -0.3711,-0.39062 -0.3711,-0.83984 0,-0.85937 1.38672,-0.52734 1.05469,0.2539 2.26563,0.2539 l 2.20703,-0.0976 q 0.99609,0 0.99609,0.74218 0,0.41016 -0.60547,0.87891 -0.58593,0.44922 -0.97656,0.78125 -0.37109,0.33203 -0.58594,0.58594 -0.37109,0.41015 -0.37109,0.76172 l -0.41016,15.01953 0.0195,1.32812 q 0,0.83985 0.5664,1.67969 0.58594,0.82031 0.83985,1.19141 0.27343,0.37109 0.27343,0.64453 0,0.68359 -1.11328,0.68359 l -0.85937,-0.0391 z m 4.9414,-31.52344 q 1.71875,0 0.85938,1.13281 l -2.16797,2.61719 q -0.74219,1.38672 -1.36719,0.0586 l -1.46484,-1.85547 q -0.91797,-1.25 -0.91797,-1.64062 0,-0.56641 0.72265,-0.56641 2.26563,0.27344 3.78907,0.27344 z"
         id="path4279"
         style="font-size:40px;line-height:1.25;font-family:'Snowburst One';-inkscape-font-specification:'Snowburst One, Normal';white-space:pre;shape-inside:url(#rect94684);fill:#ff0000;stroke-width:3.50929"
         transform="matrix(0.41731274,0,0,0.48635705,-47.404771,-206.95909)" />
      <path
         d="m 380.02344,600.72714 q -0.80078,0 -0.80078,-0.76172 0,-0.29297 0.42968,-1.32812 0.70313,-1.60157 0.70313,-1.91407 0,-0.33203 -0.11719,-0.64453 -0.27344,-0.80078 -0.66406,-3.18359 -1.17188,2.63672 -3.82813,3.35937 -1.93359,0.52735 -4.33593,-0.23437 -3.24219,-1.01563 -4.33594,-3.94531 -0.42969,-1.15235 -0.42969,-2.8711 0,-1.71875 0.66406,-3.08594 0.66407,-1.36718 1.71875,-2.24609 2.08985,-1.77734 5,-1.77734 1.91407,0 3.63282,1.32812 0.5664,0.44922 1.05468,1.05469 -0.41015,-6.67969 0.0781,-12.92969 0,-0.8789 -1.83594,-2.94922 -0.42969,-0.48828 -0.42969,-0.8789 0,-0.625 0.64453,-0.625 0.66407,0 1.42579,0.17578 0.78125,0.17578 1.5625,0.17578 l 1.85546,-0.19531 q 0.50782,0 0.89844,0.23437 0.39063,0.23438 0.39063,0.625 0,0.39063 -0.625,1.03516 -1.58203,1.67969 -1.79688,2.03125 -0.21484,0.35156 -0.3125,0.95703 -0.0781,0.60547 -0.13672,1.54297 -0.41015,6.44531 0.27344,13.98437 0.44922,5.15625 1.38672,8.1836 0.17578,0.625 1.07422,0.95703 1.21094,0.46875 1.40625,0.60547 1.30859,0.95703 0.17578,1.46484 -0.29297,0.13672 -1.79688,0.625 -1.48437,0.48828 -1.8164,0.74219 -0.60547,0.48828 -1.11328,0.48828 z m -11.44532,-11.34766 q 0,1.07422 0.29297,1.89453 0.29297,0.82032 0.76172,1.42579 0.46875,0.58593 1.07422,0.97656 0.60547,0.39062 1.23047,0.625 3.26172,1.23047 5.21484,-0.85938 1.38672,-1.48437 1.38672,-4.08203 0,-2.61719 -1.5039,-4.16015 -1.34766,-1.38672 -3.16407,-1.38672 -2.32422,0 -3.82812,1.69922 -1.46485,1.60156 -1.46485,3.86718 z"
         id="path4281"
         style="font-size:40px;line-height:1.25;font-family:'Snowburst One';-inkscape-font-specification:'Snowburst One, Normal';white-space:pre;shape-inside:url(#rect94684);fill:#ff0000;stroke-width:3.50929"
         transform="matrix(0.41731274,0,0,0.48635705,-47.404771,-206.95909)" />
      <path
         d="m 411.50781,595.29745 q 0,1.09375 -1.15234,0.72266 -1.875,-0.56641 -2.26563,-0.42969 -0.39062,0.11719 -1.07422,0.42969 -0.66406,0.29297 -1.58203,0.60547 -3.18359,1.09375 -7.08984,0.625 -2.8125,-0.33203 -5.21484,-1.73828 -2.73438,-1.58204 -3.88672,-4.78516 -0.60547,-1.67969 -0.60547,-3.90625 0,-2.24609 0.58594,-4.00391 0.60546,-1.75781 1.60156,-3.14453 0.99609,-1.38672 2.28515,-2.38281 1.3086,-0.99609 2.71485,-1.66016 3.98437,-1.89453 8.59375,-0.97656 3.39844,0.70313 4.9414,3.10547 0.80079,1.25 0.80079,2.83203 0,1.5625 -0.33204,2.53906 -0.33203,0.97657 -0.8789,1.69922 -0.54688,0.72266 -1.25,1.21094 -0.6836,0.46875 -1.40625,0.76172 -1.32813,0.54687 -2.26563,0.54687 -2.16797,0 -3.30078,-0.33203 -1.11328,-0.35156 -1.91406,-0.41015 -0.80078,-0.0781 -1.34766,-0.0977 -0.54687,-0.0391 -0.83984,-0.15625 -0.27344,-0.13672 -0.27344,-0.42969 0,-0.54687 0.56641,-1.03515 1.36719,-1.17188 2.1289,-2.44141 0.89844,-1.38672 1.66016,-0.68359 0.21484,0.19531 0.29297,1.21093 0.15625,2.01172 0.87891,2.34375 0.50781,0.29297 2.32421,0.29297 1.19141,0 2.48047,-1.26953 1.42578,-1.38672 1.42578,-3.00781 0,-5.23438 -7.1289,-5.23438 -4.10156,0 -7.22656,3.20313 -3.08594,3.18359 -3.08594,7.30469 0,4.29687 2.63672,6.67968 2.57812,2.30469 7.20703,2.30469 4.17969,0 6.21094,-1.52344 0.82031,-0.60547 1.1914,-1.40625 0.39063,-0.80078 0.60547,-1.25 0.23438,-0.44922 0.44922,-0.72265 0.21484,-0.29297 0.48828,-0.29297 0.29297,0 0.44922,0.13672 0.15625,0.11718 0.23437,0.29297 0.0391,0.0781 0.15625,0.82031 0.29297,1.75781 0.625,2.36328 0.58594,1.01562 0.58594,1.28906 z"
         id="path4283"
         style="font-size:40px;line-height:1.25;font-family:'Snowburst One';-inkscape-font-specification:'Snowburst One, Normal';white-space:pre;shape-inside:url(#rect94684);fill:#ff0000;stroke-width:3.50929"
         transform="matrix(0.41731274,0,0,0.48635705,-47.404771,-206.95909)" />
      <path
         d="m 421.78125,596.91855 -3.35938,-0.19532 q -1.09375,0 -1.34765,0.0586 -1.11328,0.23437 -1.11328,-0.46875 0,-0.41016 0.64453,-1.05469 0.66406,-0.64453 1.17187,-1.23047 0.50782,-0.60547 0.56641,-0.97656 0.0781,-0.41016 0.17578,-5.82031 0.17578,-9.98047 0.0781,-10.72266 -0.0977,-0.76172 -0.25391,-1.09375 -0.19531,-0.42969 -0.82031,-0.83984 -0.60547,-0.42969 -0.91797,-0.64454 -0.29297,-0.23437 -0.29297,-0.44921 0,-0.23438 0.0391,-0.35157 0.0391,-0.11718 0.15625,-0.23437 0.27344,-0.27344 0.78125,-0.27344 l 1.54297,0.15625 q 1.11328,0 1.69922,-0.17578 0.60547,-0.19531 0.89844,-0.19531 0.29297,0 0.5664,0.17578 0.29297,0.17578 0.29297,0.48828 0,0.29297 -0.27344,0.56641 -0.2539,0.2539 -0.58593,0.5664 -0.95703,0.89844 -1.13282,1.50391 l -0.0976,4.23828 q 1.25,-3.20313 3.41797,-4.76563 1.62109,-1.15234 3.30078,-1.21093 0.46875,0 2.57812,-1.75782 h 0.0195 q 0.15625,-0.11718 0.33204,-0.2539 0.17578,-0.15625 0.42968,-0.15625 0.58594,0 0.58594,0.80078 l -0.0977,2.75391 0.0586,1.23046 q 0,0.33204 -0.17578,0.60547 -0.39063,0.625 -1.21094,-0.0195 v 0.0195 q -0.74219,-0.80078 -1.60156,-1.15234 -0.85938,-0.35156 -1.34766,-0.35156 -0.48828,0 -1.23047,0.41015 -0.74219,0.41016 -1.40625,1.09375 -0.64453,0.66407 -1.21094,1.54297 -0.5664,0.85938 -0.99609,1.79688 -0.89844,1.95312 -1.01562,3.33984 -0.0977,1.38672 -0.17579,2.48047 -0.0586,1.07422 -0.11718,2.14844 -0.23438,4.47265 -0.0391,4.88281 0.19532,0.41016 0.42969,0.74219 l 1.42578,1.93359 q 0.48828,0.85938 -0.37109,0.85938 z"
         id="path4285"
         style="font-size:40px;line-height:1.25;font-family:'Snowburst One';-inkscape-font-specification:'Snowburst One, Normal';white-space:pre;shape-inside:url(#rect94684);fill:#ff0000;stroke-width:3.50929"
         transform="matrix(0.41731274,0,0,0.48635705,-47.404771,-206.95909)" />
      <path
         d="m 475.86328,599.5748 q -0.54687,0 -1.25,-0.58594 -0.68359,-0.56641 -0.97656,-0.74219 -0.625,-0.35156 -1.3086,-0.39062 -0.66406,-0.0391 -1.17187,0.0586 -0.48828,0.0977 -1.19141,0.21484 -2.73437,0.41016 -4.45312,0.29297 -3.125,-0.21484 -4.58985,-0.70312 -1.46484,-0.48828 -2.71484,-1.19141 -1.23047,-0.72266 -2.42187,-1.77734 -1.17188,-1.05469 -2.07032,-2.51953 -2.03125,-3.22266 -2.03125,-7.57813 0,-8.67187 7.34375,-12.26562 4.78516,-2.36329 12.36328,-2.48047 1.19141,0 2.28516,-0.91797 0.3125,-0.27344 0.50781,-0.58594 0.42969,-0.66406 1.13282,-0.66406 0.72265,0 0.72265,0.66406 0,0 -0.29297,1.21094 -0.41015,1.93359 -0.41015,3.55469 l 0.0586,0.82031 q 0,0.70312 -0.54687,0.70312 -0.48829,0 -1.03516,-0.78125 -0.52734,-0.80078 -1.11328,-1.23047 -0.56641,-0.42968 -1.21094,-0.64453 -0.85937,-0.27343 -2.8125,-0.27343 -1.93359,0 -3.78906,0.35156 -1.85547,0.35156 -3.51563,1.05469 -1.66015,0.68359 -3.08593,1.71875 -1.40625,1.03515 -2.44141,2.42187 -2.20703,2.94922 -2.20703,6.91406 0,6.67969 4.33594,9.88282 3.53515,2.61718 8.51562,2.61718 4.58984,0 6.32813,-1.67968 0.41015,-0.41016 0.78125,-1.13282 0.37109,-0.72265 0.9375,-1.25 0.5664,-0.52734 0.97656,-0.52734 0.68359,0 0.68359,1.13281 l -0.15625,1.9336 q 0,1.11328 0.3125,2.7539 0.3125,1.6211 -0.48828,1.6211 z"
         id="path4287"
         style="font-size:40px;line-height:1.25;font-family:'Snowburst One';-inkscape-font-specification:'Snowburst One, Normal';white-space:pre;shape-inside:url(#rect94684);fill:#ff0000;stroke-width:3.50929"
         transform="matrix(0.41731274,0,0,0.48635705,-47.404771,-206.95909)" />
      <path
         d="m 494.06641,595.86386 q -1.11329,0.3125 -1.99219,0.41015 -0.87891,0.0781 -1.28906,0.0781 -0.41016,0 -1.26954,-0.11719 -0.85937,-0.11719 -1.875,-0.44922 -1.01562,-0.35156 -2.07031,-0.99609 -1.05469,-0.66406 -1.91406,-1.73828 -1.95313,-2.40235 -1.95313,-6.28906 0,-3.71094 2.46094,-6.58204 2.2461,-2.65625 4.96094,-3.10546 1.71875,-0.52735 4.04297,-0.17579 2.22656,0.35157 4.12109,1.73829 2.16797,1.5625 3.08594,4.72656 0.46875,1.66015 0.46875,3.82812 0,2.16797 -0.64453,3.67188 -0.64453,1.48437 -1.64063,2.5 -0.99609,0.99609 -2.1875,1.60156 -1.1914,0.58594 -2.30468,0.89844 z m -5.91797,-1.89453 q 0.80078,0.3125 1.52343,0.44922 0.72266,0.11718 1.11329,0.11718 0.39062,0 1.09375,-0.0781 0.72265,-0.0781 1.60156,-0.33203 0.89844,-0.25391 1.85547,-0.72266 0.97656,-0.48828 1.77734,-1.30859 1.83594,-1.875 1.83594,-4.92188 0,-6.23047 -4.47266,-7.98828 -3.41797,-1.32812 -6.99219,0.56641 -0.48828,0.2539 -0.85937,0.42968 -1.38672,0.95704 -2.22656,3.00782 -0.72266,1.75781 -0.72266,3.49609 0,1.71875 0.39063,2.92969 0.41015,1.1914 1.03515,2.05078 0.64453,0.85937 1.44531,1.42578 0.80079,0.54688 1.60157,0.87891 z"
         id="path4289"
         style="font-size:40px;line-height:1.25;font-family:'Snowburst One';-inkscape-font-specification:'Snowburst One, Normal';white-space:pre;shape-inside:url(#rect94684);fill:#ff0000;stroke-width:3.50929"
         transform="matrix(0.41731274,0,0,0.48635705,-47.404771,-206.95909)" />
      <g
         id="g344873"
         transform="matrix(2.254561,0,0,2.254561,-2.8132534,-2.0785944)">
        <path
           style="fill:#ff0000;stroke:#000000;stroke-width:0.0574985px;stroke-linecap:butt;stroke-linejoin:miter;stroke-opacity:1"
           d="m 36.652333,4.8291972 c 1.46538,1.2266683 1.697716,2.7420922 1.740908,4.3018076 2.763924,-0.7750386 5.531537,-1.5216813 8.764552,1.3285042 2.31874,3.202445 4.435192,7.303918 1.800937,13.031945 -1.48005,2.162666 -1.952029,6.011421 -7.864075,6.895556 -1.193034,-0.06226 -2.848941,0.08283 -3.721943,-0.822412 -4.227187,1.801215 -7.864082,-0.442823 -7.864082,-0.442823 -0.06264,0.01973 -3.157045,-0.137814 -4.202186,-9.362765 -0.317905,-3.870343 1.073026,-8.012435 4.082117,-10.8810503 2.001034,-1.3751106 4.002079,-1.0015094 6.003123,-0.3795678 l 2.161118,0.6326129 C 37.582922,6.2207427 35.412256,6.0852156 34.731307,4.9733267 Z"
           id="path94674"
           sodipodi:nodetypes="ccccccccccccc" />
        <path
           style="fill:#008000;stroke:#000000;stroke-width:0.0574985px;stroke-linecap:butt;stroke-linejoin:miter;stroke-opacity:1"
           d="M 38.393241,9.1310048 C 38.947273,7.8817609 38.189234,6.3302921 40.554367,4.7659433 44.424163,4.2507169 46.820274,2.6796808 47.165844,1.6661076 46.977999,2.9946021 46.593999,5.7148627 45.364915,7.0433655 43.489729,8.3793498 44.224033,7.8026548 42.663499,8.4351232 Z"
           id="path94676"
           sodipodi:nodetypes="cccccc" />
        <path
           style="fill:#ff0000;stroke:#000000;stroke-width:0.0574985px;stroke-linecap:butt;stroke-linejoin:miter;stroke-opacity:1"
           d="m 36.652333,4.8291972 c 1.46538,1.2266683 1.697716,2.7420922 1.740908,4.3018076 2.763924,-0.7750386 5.531537,-1.5216813 8.764552,1.3285042 2.31874,3.202445 4.435192,7.303918 1.800937,13.031945 -1.48005,2.162666 -1.952029,6.011421 -7.864075,6.895556 -1.193034,-0.06226 -2.848941,0.08283 -3.721943,-0.822412 -4.227187,1.801215 -7.864082,-0.442823 -7.864082,-0.442823 -0.06264,0.01973 -3.157045,-0.137814 -4.202186,-9.362765 -0.317905,-3.870343 1.073026,-8.012435 4.082117,-10.8810503 2.001034,-1.3751106 4.002079,-1.0015094 6.003123,-0.3795678 l 2.161118,0.6326129 C 37.582922,6.2207427 35.412256,6.0852156 34.731307,4.9733267 Z"
           id="path94682"
           sodipodi:nodetypes="ccccccccccccc" />
      </g>
    </g>
  </g>
</svg>
