<?xml version="1.0" encoding="UTF-8" standalone="no"?>
<!-- Created with Inkscape (http://www.inkscape.org/) -->

<svg
   width="600"
   height="316"
   viewBox="0 0 158.75 83.608332"
   version="1.1"
   id="svg343178"
   inkscape:version="1.1.1 (3bf5ae0d25, 2021-09-20)"
   sodipodi:docname="logo for video 600x316_2.svg"
   xmlns:inkscape="http://www.inkscape.org/namespaces/inkscape"
   xmlns:sodipodi="http://sodipodi.sourceforge.net/DTD/sodipodi-0.dtd"
   xmlns="http://www.w3.org/2000/svg"
   xmlns:svg="http://www.w3.org/2000/svg">
  <sodipodi:namedview
     id="namedview343180"
     pagecolor="#ffffff"
     bordercolor="#666666"
     borderopacity="1.0"
     inkscape:pageshadow="2"
     inkscape:pageopacity="0.0"
     inkscape:pagecheckerboard="0"
     inkscape:document-units="px"
     showgrid="false"
     inkscape:showpageshadow="false"
     units="px"
     showborder="false"
     inkscape:zoom="0.50898197"
     inkscape:cx="274.07651"
     inkscape:cy="612.98832"
     inkscape:window-width="1920"
     inkscape:window-height="986"
     inkscape:window-x="-11"
     inkscape:window-y="-11"
     inkscape:window-maximized="1"
     inkscape:current-layer="layer1" />
  <defs
     id="defs343175">
    <rect
       x="117.89508"
       y="560.53754"
       width="539.10205"
       height="57.875767"
       id="rect94684" />
  </defs>
  <g
     inkscape:label="Layer 1"
     inkscape:groupmode="layer"
     id="layer1">
    <g
       aria-label="Cawston Cider Co"
       transform="matrix(0.41731273,0,0,0.48635704,-47.40477,-206.95909)"
       id="text94680"
       style="font-size:40px;line-height:1.25;font-family:'Snowburst One';-inkscape-font-specification:'Snowburst One, Normal';white-space:pre;shape-inside:url(#rect94684);fill:#ff0000;stroke-width:3.50929" />
    <path
       d="m 17.532596,79.184043 q -0.20729,0 -0.473811,-0.259902 -0.259114,-0.251239 -0.370164,-0.329209 -0.236905,-0.155939 -0.496023,-0.173265 -0.251711,-0.01734 -0.444196,0.02599 -0.185082,0.04334 -0.451602,0.0953 -1.03646,0.181932 -1.68795,0.129951 -1.184527,-0.09529 -1.739776,-0.311879 Q 11.313828,78.144444 10.840017,77.832561 10.373609,77.512015 9.9220102,77.044197 9.4778106,76.576374 9.1372581,75.926624 8.3673153,74.497168 8.3673153,72.565239 q 0,-3.846529 2.7836387,-5.440587 1.813809,-1.04827 4.686286,-1.100247 0.451602,0 0.866187,-0.407179 0.118453,-0.121288 0.192485,-0.259901 0.162873,-0.294554 0.429394,-0.294554 0.273919,0 0.273919,0.294554 0,0 -0.11105,0.537129 -0.155466,0.857671 -0.155466,1.576732 l 0.02221,0.36386 q 0,0.311879 -0.207291,0.311879 -0.185085,0 -0.392376,-0.346534 -0.199887,-0.355198 -0.421987,-0.545793 -0.214697,-0.19059 -0.459005,-0.28589 -0.325743,-0.121284 -1.066075,-0.121284 -0.732925,0 -1.436238,0.15594 -0.703314,0.155939 -1.332595,0.467822 -0.629278,0.303216 -1.169718,0.762376 -0.533037,0.459155 -0.9254135,1.074254 -0.8365719,1.308168 -0.8365719,3.066828 0,2.96287 1.6435324,4.383663 1.339994,1.160886 3.227835,1.160886 1.739773,0 2.39867,-0.745045 0.155467,-0.181932 0.296132,-0.502478 0.140661,-0.320542 0.355358,-0.554455 0.214693,-0.233909 0.370164,-0.233909 0.259113,0 0.259113,0.502473 l -0.05923,0.857676 q 0,0.493811 0.118453,1.221531 0.118453,0.719061 -0.185082,0.719061 z"
       id="path4263"
       style="font-size:40px;line-height:1.25;font-family:'Snowburst One';-inkscape-font-specification:'Snowburst One, Normal';white-space:pre;shape-inside:url(#rect94684);fill:#ff0000;stroke-width:1.43895" />
    <path
       d="m 28.822623,78.690227 q -0.347955,0 -0.251715,-0.57178 0.192489,-1.056929 0.103647,-1.334156 l -1.362206,-2.50371 q -0.392372,-0.736388 -0.829169,-1.620051 -0.340553,1.082921 -0.636684,1.77599 -0.288726,0.693069 -0.792152,1.403463 -0.503422,0.710399 -0.984639,1.212872 -1.621321,1.689354 -2.968721,1.689354 -0.710717,0 -1.132704,-0.53713 -0.49602,-0.667076 -0.170276,-1.931925 0.429394,-1.680695 2.072922,-3.058169 1.480659,-1.247524 3.16121,-1.706679 0.451599,-0.129951 0.806957,-0.17327 -0.806957,-1.663364 -1.051265,-2.261133 -0.133263,-0.190595 -0.377571,-0.285891 -0.910604,-0.363864 -1.036459,-0.450497 -0.125856,-0.09529 -0.125856,-0.216583 0,-0.277227 0.38497,-0.415841 0.666295,-0.216584 1.177124,-0.701732 0.288729,-0.28589 0.562649,-0.28589 0.273923,0 0.273923,0.337872 l -0.273923,1.056928 q -0.08143,0.381186 0.01482,0.597769 l 1.569497,3.378711 q 1.021654,2.13985 1.887841,3.577969 0.303535,0.511136 0.466408,0.641087 0.170276,0.121288 0.407182,0.233909 0.236905,0.112626 0.451599,0.216588 0.525634,0.259898 0.525634,0.476481 0,0.242576 -0.377567,0.415841 -0.370164,0.17327 -0.607069,0.355202 -0.229503,0.181928 -0.384973,0.337867 -0.148064,0.147281 -0.259114,0.251239 -0.11105,0.09529 -0.244308,0.09529 z m -8.262079,-2.295789 q -0.09624,0.38119 -0.09624,0.606436 0,0.225246 0.04442,0.38119 0.04442,0.155939 0.125856,0.277227 0.192488,0.259898 0.436796,0.259898 0.444196,0 1.006849,-0.259898 0.562648,-0.268564 1.006848,-0.658417 0.444196,-0.398516 0.866183,-0.909652 0.903205,-1.100247 1.399224,-2.235145 0.4442,-0.987627 0.681105,-1.819309 -1.169721,0.121288 -2.494914,0.892326 -1.214138,0.701732 -2.043307,1.750002 -0.718119,0.909652 -0.932816,1.715342 z"
       id="path4265"
       style="font-size:40px;line-height:1.25;font-family:'Snowburst One';-inkscape-font-specification:'Snowburst One, Normal';white-space:pre;shape-inside:url(#rect94684);fill:#ff0000;stroke-width:1.43895" />
    <path
       d="m 41.652532,65.530589 q 0.547847,-0.181932 0.547847,0.164603 0,0.20792 -0.547847,1.342819 -0.192485,0.389852 -0.192485,0.545792 0,0.155939 0.01482,0.424504 0.01482,0.259902 0.0296,0.658417 0.02221,0.398516 0.04442,0.900989 0.0296,0.502474 0.04442,1.039603 0.08144,2.29579 0.01482,3.144798 -0.06663,0.840345 -0.177679,1.498763 -0.11105,0.658413 -0.296132,1.282175 -0.177679,0.615099 -0.429394,1.091584 -0.562648,1.048266 -1.377012,1.048266 -0.955024,0 -1.480659,-1.238861 -0.362761,-0.874997 -0.510829,-1.542077 -0.140661,-0.66708 -0.222096,-1.056929 -0.07403,-0.389852 -0.140665,-0.710394 L 36.833,73.336273 36.692339,74.245925 q -0.407182,2.399752 -0.866187,3.396036 -0.377567,0.805694 -0.621879,1.056934 -0.407178,0.424504 -0.769942,0.424504 -0.70331,0 -1.03646,-0.788369 -0.436793,-0.996284 -0.932816,-4.106431 -0.806957,-4.487621 -0.836572,-4.920787 -0.05182,-0.407179 -0.940219,-0.883664 -0.347955,-0.181928 -0.414585,-0.268565 -0.05923,-0.09529 -0.05923,-0.199253 0,-0.277228 0.547843,-0.355202 0.688508,-0.103958 1.021658,-0.277227 0.340548,-0.181928 0.496019,-0.26856 0.784748,-0.433172 0.784748,0.01734 0,0.190595 -0.148064,0.502474 -0.148068,0.303216 -0.259117,0.554455 -0.103644,0.242576 -0.170273,0.433166 -0.118453,0.355198 -0.118453,0.701732 0,0.346534 0.08143,0.935645 0.08143,0.589106 0.214697,1.247523 0.02221,0.138614 0.577454,2.763612 l 0.288729,1.724009 q 0.421988,2.347771 0.932817,2.347771 0.333149,0 0.851377,-1.264854 0.436797,-1.091579 0.54044,-1.715341 0.103647,-0.632429 0.185086,-1.056933 0.08143,-0.433167 0.155467,-0.909652 0.325747,-2.096532 0.09624,-3.439351 -0.07403,-0.441834 -0.636684,-0.952971 -0.118453,-0.112625 -0.2221,-0.164606 -0.09624,-0.06064 -0.207291,-0.190591 -0.103647,-0.129951 -0.103647,-0.251239 0,-0.242572 0.429391,-0.242572 0.429394,0 0.777345,-0.03464 0.355358,-0.03464 0.629282,-0.07797 0.710716,-0.112625 0.858784,-0.112625 0.340549,0 -0.07404,0.693069 -0.192485,0.329208 -0.384969,0.571785 -0.185082,0.242572 -0.229503,0.303216 -0.03703,0.05198 -0.05182,0.129951 -0.01482,0.07797 -0.01482,0.216583 v 0.398516 q 0,0.874996 0.148064,1.420788 0.288729,2.009899 0.421987,2.694305 0.33315,1.646039 0.821766,2.711631 0.207294,0.476485 0.621879,0.684406 0.629278,0.294553 1.043862,-0.64975 0.421991,-0.996289 0.540444,-1.524752 0.570052,-2.50371 0.207291,-6.428213 -0.11105,-1.186879 -0.170277,-1.351486 -0.05923,-0.164602 -0.170276,-0.259897 -0.11105,-0.103963 -0.251711,-0.190595 -0.140661,-0.08663 -0.288729,-0.164603 -0.148064,-0.08664 -0.27392,-0.173269 -0.459005,-0.355197 -0.192488,-0.615099 0.08884,-0.08663 0.33315,-0.138614 0.251711,-0.05198 0.47381,-0.112621 0.2221,-0.06931 0.407182,-0.138613 z"
       id="path4267"
       style="font-size:40px;line-height:1.25;font-family:'Snowburst One';-inkscape-font-specification:'Snowburst One, Normal';white-space:pre;shape-inside:url(#rect94684);fill:#ff0000;stroke-width:1.43895" />
    <path
       d="m 47.804671,68.961277 q 0,0.259902 -0.125856,0.259902 -0.118452,0 -0.251711,-0.121288 -0.125855,-0.121288 -0.251711,-0.268565 -0.347955,-0.389848 -0.466408,-0.398515 -0.118453,-0.01734 -0.288729,0.0086 -0.170276,0.01734 -0.362761,0.07797 -0.192488,0.06064 -0.392376,0.164602 -0.199888,0.103963 -0.355358,0.277228 -0.370164,0.381189 -0.370164,0.970296 0,0.675743 1.006848,1.559406 0.784749,0.693069 1.117898,1.048266 0.333146,0.355197 0.555246,0.701732 0.496019,0.788364 0.496019,1.68069 0,1.689353 -1.613917,2.477722 -0.518232,0.259902 -0.799554,0.259902 -0.281326,0 -0.48862,0.173265 -0.199888,0.173269 -0.370164,0.38119 -0.170276,0.199253 -0.303535,0.372522 -0.125855,0.173265 -0.199887,0.173265 -0.06663,0 -0.11105,-0.04329 -0.04442,-0.04334 -0.07403,-0.103963 -0.05923,-0.138614 -0.05923,-0.251235 l -0.03703,-1.533413 q 0,-1.056934 0.303535,-0.779706 0.07403,0.06064 0.192485,0.242576 0.125855,0.181928 0.199891,0.277228 0.08143,0.09529 0.192485,0.155939 0.451602,0.251239 1.206735,-0.0087 0.880993,-0.303215 1.199337,-1.100247 0.503422,-1.256186 -0.932816,-2.685642 l -1.132704,-1.03094 q -1.036463,-0.961629 -1.036463,-1.966581 0,-1.507425 1.421433,-2.06188 0.451602,-0.181928 0.829169,-0.181928 0.08884,0 0.384973,-0.329209 0.303535,-0.329209 0.414585,-0.441829 0.266516,-0.268565 0.31834,-0.268565 0.133258,0 0.133258,0.545792 l -0.0074,0.710394 z"
       id="path4269"
       style="font-size:40px;line-height:1.25;font-family:'Snowburst One';-inkscape-font-specification:'Snowburst One, Normal';white-space:pre;shape-inside:url(#rect94684);fill:#ff0000;stroke-width:1.43895" />
    <path
       d="m 51.639579,75.320184 0.0074,-0.268565 q 0.03703,-1.022278 0.11105,-2.027225 0.08143,-1.013615 0.148064,-2.096536 -0.421987,-0.0087 -0.584857,-0.0087 0,0 -0.207294,0 -0.288729,0 -0.459005,0.155944 -0.16287,0.147277 -0.27392,0.294553 -0.370167,0.467823 -0.562652,0.467823 -0.236905,0 -0.236905,-0.285895 0,-0.181928 0.103647,-0.667076 0.11105,-0.493811 0.11105,-0.909652 l -0.04442,-0.580448 q 0,-0.311878 0.170276,-0.311878 0.103647,0 0.38497,0.381185 0.281326,0.372527 0.429394,0.545792 0.148064,0.164607 0.259113,0.164607 0.459006,0 0.947622,0.03464 0.125856,-1.914604 0.125856,-2.42574 0,-0.216583 -0.562649,-0.918315 -0.185082,-0.216583 -0.185082,-0.398516 0,-0.311878 0.421988,-0.311878 0.11105,0 0.296132,0.05198 0.192484,0.05198 0.451598,0.05198 l 0.910608,-0.07797 q 0.325743,0 0.325743,0.294553 0,0.181932 -0.140661,0.355197 -0.133259,0.17327 -0.177679,0.199258 -0.177679,0.103963 -0.355358,0.407179 -0.170277,0.303215 -0.199892,0.398515 -0.02221,0.08663 -0.04442,0.320542 -0.02221,0.22525 -0.05182,0.545792 l -0.103647,1.550744 q 2.235796,0.121283 2.568942,0.08663 0.333149,-0.04334 0.525634,-0.216583 0.199892,-0.17327 0.303535,-0.28589 0.11105,-0.112626 0.170276,-0.181933 0.05923,-0.07797 0.133262,-0.138613 0.16287,-0.15594 0.296132,-0.15594 0.251711,0 0.251711,0.563118 l -0.05182,1.03094 q 0,0.216584 0.04442,0.415841 0.16287,0.701732 -0.236905,0.701732 -0.148068,0 -0.303535,-0.138614 -0.15547,-0.138614 -0.340552,-0.303216 -0.547843,-0.502478 -0.703314,-0.519803 L 52.609411,70.962466 52.461347,73.3189 q -0.162874,1.897273 -0.05923,2.538365 0.111049,0.641088 0.296131,0.987622 0.414585,0.788364 1.317786,0.788364 0.673698,0 1.421433,-0.57178 0.170276,-0.129951 0.251711,-0.216584 0.08144,-0.0953 0.185082,-0.38119 0.11105,-0.28589 0.148068,-0.753713 0.03703,-0.467818 0.266516,-0.467818 0.170277,0 0.266521,0.199258 l 0.355358,0.840345 q 0.185082,0.398512 0.392376,0.615099 0.214693,0.207921 0.27392,0.277228 0.06663,0.06931 0.06663,0.173265 0,0.28589 -0.414585,0.28589 l -0.79214,-0.06065 q -0.496019,0 -0.851377,0.233913 -1.584306,1.039603 -2.724413,0.372523 -1.221545,-0.719057 -1.221545,-2.858907 z"
       id="path4271"
       style="font-size:40px;line-height:1.25;font-family:'Snowburst One';-inkscape-font-specification:'Snowburst One, Normal';white-space:pre;shape-inside:url(#rect94684);fill:#ff0000;stroke-width:1.43895" />
    <path
       d="m 63.921645,77.538003 q -0.421988,0.138614 -0.755133,0.181928 -0.33315,0.03464 -0.488621,0.03464 -0.155467,0 -0.481214,-0.05198 -0.325743,-0.05198 -0.710716,-0.199258 -0.384969,-0.155939 -0.784748,-0.441829 -0.399779,-0.294553 -0.725522,-0.771039 -0.740332,-1.065595 -0.740332,-2.7896 0,-1.646039 0.932816,-2.919556 0.851378,-1.178216 1.880438,-1.37747 0.65149,-0.233913 1.532483,-0.07797 0.843975,0.155944 1.562094,0.771043 0.821766,0.693069 1.169722,2.096532 0.177679,0.736382 0.177679,1.698016 0,0.961633 -0.244309,1.628713 -0.244312,0.658413 -0.621878,1.10891 -0.377567,0.44183 -0.829169,0.710394 -0.451603,0.259902 -0.87359,0.398516 z m -2.243199,-0.840345 q 0.303538,0.138614 0.577458,0.199258 0.273923,0.05198 0.421987,0.05198 0.148068,0 0.414585,-0.03464 0.273923,-0.03464 0.607073,-0.147276 0.340549,-0.112625 0.70331,-0.320546 0.370167,-0.216583 0.673702,-0.580443 0.695911,-0.831683 0.695911,-2.183169 0,-2.763612 -1.695357,-3.543313 -1.295577,-0.589106 -2.65038,0.251239 -0.185082,0.112621 -0.325743,0.190591 -0.525635,0.424508 -0.843979,1.33416 -0.273919,0.779701 -0.273919,1.55074 0,0.762375 0.148064,1.299504 0.15547,0.528463 0.392376,0.909653 0.244308,0.381185 0.547843,0.632424 0.303534,0.242576 0.607069,0.389853 z"
       id="path4273"
       style="font-size:40px;line-height:1.25;font-family:'Snowburst One';-inkscape-font-specification:'Snowburst One, Normal';white-space:pre;shape-inside:url(#rect94684);fill:#ff0000;stroke-width:1.43895" />
    <path
       d="m 71.0066,78.776864 q 0,0.242572 -0.229503,0.242572 l -0.384969,-0.04334 -1.332595,-0.06064 q -0.407182,-0.02599 -0.04442,-0.606436 l 0.459005,-0.788364 q 0.125856,-0.199258 0.148068,-0.355202 0.02221,-0.164602 0.04442,-0.502474 0.02221,-0.337871 0.04442,-0.840345 0.02221,-0.511136 0.04442,-1.143561 0.0296,-0.632429 0.05923,-1.308168 0.0296,-0.675743 0.05182,-1.351486 0.02221,-0.684406 0.037,-1.273512 0.04442,-1.299505 0.04442,-1.949255 -0.05182,-0.259902 -0.296131,-0.623762 -0.244309,-0.372527 -0.347956,-0.519804 -0.103647,-0.155939 -0.103647,-0.233909 0,-0.190595 0.229503,-0.190595 0.229502,0 0.481213,0 0.259118,-0.0086 0.510829,-0.01734 l 0.969831,-0.103963 q 0.421991,0 0.08884,0.606437 l -0.718119,0.95297 q -0.11105,0.164602 -0.118453,0.242572 -0.0074,0.06931 -0.02221,0.320546 -0.0074,0.242572 -0.02221,0.580443 -0.0296,0.433172 -0.05182,1.351487 0.392376,-1.117573 1.088287,-2.044555 0.880989,-1.160887 1.887837,-1.160887 1.458451,0 2.213588,2.451729 0.229502,0.736387 0.384969,1.75866 0.162874,1.022277 0.259118,1.715346 0.103643,0.684406 0.162869,1.10891 0.11105,0.762375 0.133263,0.866338 0.02221,0.103958 0.11105,0.259897 0.09624,0.155944 0.214693,0.303221 0.251711,0.311878 0.481213,0.441829 0.229503,0.121288 0.229503,0.320546 0,0.190591 -0.140661,0.251235 -0.133258,0.06064 -0.370164,0.103962 -0.755137,0.121289 -1.014255,0.268565 -0.31834,0.181928 -0.459001,0.181928 -0.362761,0 -0.229503,-0.424504 l 0.148064,-0.372523 q 0.310941,-0.866338 0.310941,-1.074259 0,-0.20792 -0.0296,-0.485148 -0.02221,-0.28589 -0.05923,-0.64975 -0.08884,-0.840345 -0.177679,-1.290842 -0.08143,-0.459155 -0.148064,-0.944303 -0.06663,-0.485148 -0.162873,-1.022278 -0.09624,-0.537129 -0.244308,-1.056928 -0.148068,-0.528467 -0.377571,-0.952971 -0.496019,-0.944308 -1.310383,-0.944308 -1.251156,0 -2.198778,2.339108 -0.695911,1.706684 -0.76254,2.876238 -0.155467,2.728956 -0.155467,2.980195 0,0.251235 0.07403,0.450492 0.07403,0.199258 0.170276,0.407179 l 0.392373,0.762375 q 0.03703,0.0953 0.03703,0.190595 z"
       id="path4275"
       style="font-size:40px;line-height:1.25;font-family:'Snowburst One';-inkscape-font-specification:'Snowburst One, Normal';white-space:pre;shape-inside:url(#rect94684);fill:#ff0000;stroke-width:1.43895" />
    <path
       d="m 94.467643,79.184043 q -0.20729,0 -0.473811,-0.259902 -0.259114,-0.251239 -0.370164,-0.329209 -0.236905,-0.155939 -0.496023,-0.173265 -0.251711,-0.01734 -0.444196,0.02599 -0.185082,0.04334 -0.451602,0.0953 -1.03646,0.181932 -1.68795,0.129951 -1.184527,-0.09529 -1.739776,-0.311879 -0.555246,-0.216583 -1.029057,-0.528466 -0.466408,-0.320546 -0.918007,-0.788364 -0.444199,-0.467823 -0.784752,-1.117573 -0.769943,-1.429456 -0.769943,-3.361385 0,-3.846529 2.783639,-5.440587 1.813809,-1.04827 4.686286,-1.100247 0.451602,0 0.866187,-0.407179 0.118453,-0.121288 0.192485,-0.259901 0.162873,-0.294554 0.429394,-0.294554 0.273919,0 0.273919,0.294554 0,0 -0.11105,0.537129 -0.155467,0.857671 -0.155467,1.576732 l 0.02221,0.36386 q 0,0.311879 -0.207291,0.311879 -0.185085,0 -0.392376,-0.346534 -0.199887,-0.355198 -0.421987,-0.545793 -0.214697,-0.19059 -0.459005,-0.28589 -0.325743,-0.121284 -1.066075,-0.121284 -0.732925,0 -1.436238,0.15594 -0.703314,0.155939 -1.332595,0.467822 -0.629278,0.303216 -1.169718,0.762376 -0.533038,0.459155 -0.925414,1.074254 -0.836572,1.308168 -0.836572,3.066828 0,2.96287 1.643533,4.383663 1.339994,1.160886 3.227835,1.160886 1.739773,0 2.39867,-0.745045 0.155466,-0.181932 0.296131,-0.502478 0.140662,-0.320542 0.355359,-0.554455 0.214693,-0.233909 0.370163,-0.233909 0.259114,0 0.259114,0.502473 l -0.05923,0.857676 q 0,0.493811 0.118453,1.221531 0.118452,0.719061 -0.185082,0.719061 z"
       id="path4277"
       style="font-size:40px;line-height:1.25;font-family:'Snowburst One';-inkscape-font-specification:'Snowburst One, Normal';white-space:pre;shape-inside:url(#rect94684);fill:#ff0000;stroke-width:1.43895" />
    <path
       d="m 97.517803,79.114736 q -0.377571,0 -0.377571,-0.329209 0,-0.138614 0.207294,-0.45916 0.207291,-0.329208 0.399776,-0.632424 0.199891,-0.311879 0.222099,-0.485148 l 0.162874,-7.164596 q -0.0074,-0.259902 -0.155471,-0.45916 -0.140661,-0.199258 -0.310937,-0.381185 -0.170277,-0.181933 -0.310938,-0.355202 -0.140665,-0.173265 -0.140665,-0.372523 0,-0.381185 0.525635,-0.233909 0.399779,0.112621 0.858784,0.112621 l 0.836572,-0.04329 q 0.377566,0 0.377566,0.329204 0,0.181933 -0.229502,0.389853 -0.222096,0.199258 -0.370164,0.346535 -0.140661,0.147276 -0.2221,0.259902 -0.140661,0.181927 -0.140661,0.337871 l -0.155471,6.662122 0.0074,0.589106 q 0,0.372528 0.214693,0.74505 0.2221,0.36386 0.318344,0.528467 0.103643,0.164602 0.103643,0.28589 0,0.303216 -0.421987,0.303216 l -0.325743,-0.01734 z m 1.873031,-13.982662 q 0.651486,0 0.325747,0.502474 l -0.821766,1.160891 q -0.281326,0.615099 -0.518232,0.02599 l -0.555246,-0.82302 q -0.347955,-0.554455 -0.347955,-0.72772 0,-0.251239 0.27392,-0.251239 0.858784,0.121288 1.436242,0.121288 z"
       id="path4279"
       style="font-size:40px;line-height:1.25;font-family:'Snowburst One';-inkscape-font-specification:'Snowburst One, Normal';white-space:pre;shape-inside:url(#rect94684);fill:#ff0000;stroke-width:1.43895" />
    <path
       d="m 106.76452,79.695179 q -0.30354,0 -0.30354,-0.337871 0,-0.129951 0.16287,-0.589107 0.26652,-0.710398 0.26652,-0.849012 0,-0.147277 -0.0444,-0.28589 -0.10364,-0.355198 -0.25171,-1.412126 -0.4442,1.169554 -1.45105,1.490095 -0.73292,0.233914 -1.64352,-0.103958 -1.22895,-0.450497 -1.64354,-1.749997 -0.16287,-0.511141 -0.16287,-1.273517 0,-0.762375 0.25171,-1.368811 0.25172,-0.606432 0.65149,-0.996285 0.79216,-0.788364 1.89524,-0.788364 0.72553,0 1.37702,0.589106 0.21469,0.199258 0.39978,0.467823 -0.15547,-2.96287 0.0296,-5.735145 0,-0.389848 -0.69591,-1.308167 -0.16288,-0.216584 -0.16288,-0.389849 0,-0.277227 0.24431,-0.277227 0.25172,0 0.54045,0.07797 0.29613,0.07797 0.59226,0.07797 l 0.70331,-0.08663 q 0.19249,0 0.34055,0.103958 0.14807,0.103962 0.14807,0.277227 0,0.17327 -0.2369,0.45916 -0.59967,0.74505 -0.68111,0.900989 -0.0814,0.155939 -0.11845,0.424504 -0.0296,0.268565 -0.0518,0.684406 -0.15546,2.858907 0.10365,6.202963 0.17028,2.287126 0.52564,3.62995 0.0666,0.277227 0.40718,0.424504 0.459,0.20792 0.53303,0.268564 0.49602,0.424504 0.0666,0.64975 -0.11105,0.06065 -0.6811,0.277228 -0.56265,0.216583 -0.68851,0.329209 -0.2295,0.216583 -0.42198,0.216583 z m -4.33834,-5.033413 q 0,0.476485 0.11105,0.840345 0.11105,0.363865 0.28873,0.632429 0.17768,0.259898 0.40718,0.433167 0.22951,0.173265 0.46641,0.277228 1.23635,0.545792 1.97668,-0.38119 0.52564,-0.658413 0.52564,-1.810642 0,-1.160891 -0.57006,-1.845292 -0.51082,-0.615099 -1.19933,-0.615099 -0.88099,0 -1.45105,0.753712 -0.55525,0.710395 -0.55525,1.715342 z"
       id="path4281"
       style="font-size:40px;line-height:1.25;font-family:'Snowburst One';-inkscape-font-specification:'Snowburst One, Normal';white-space:pre;shape-inside:url(#rect94684);fill:#ff0000;stroke-width:1.43895" />
    <path
       d="m 118.69863,77.286764 q 0,0.485148 -0.43679,0.320546 -0.71072,-0.251239 -0.85879,-0.190595 -0.14806,0.05198 -0.40718,0.190595 -0.25171,0.129951 -0.59967,0.268565 -1.20673,0.485148 -2.68739,0.277227 -1.06608,-0.147276 -1.97668,-0.771038 -1.03646,-0.701736 -1.47326,-2.122525 -0.2295,-0.745049 -0.2295,-1.732671 0,-0.996285 0.2221,-1.77599 0.2295,-0.779702 0.60707,-1.394801 0.37757,-0.615099 0.86618,-1.056928 0.49603,-0.44183 1.02906,-0.736387 1.51027,-0.840346 3.25745,-0.433167 1.28818,0.311883 1.87304,1.377474 0.30353,0.554455 0.30353,1.256187 0,0.693069 -0.12586,1.126235 -0.12585,0.433172 -0.33314,0.753713 -0.2073,0.320546 -0.47381,0.537129 -0.25912,0.207921 -0.53304,0.337872 -0.50343,0.242572 -0.85878,0.242572 -0.82177,0 -1.25116,-0.147277 -0.42199,-0.155939 -0.72552,-0.181928 -0.30354,-0.03464 -0.51083,-0.04334 -0.20729,-0.01734 -0.31834,-0.06931 -0.10365,-0.06064 -0.10365,-0.190595 0,-0.242571 0.2147,-0.459155 0.51823,-0.519804 0.80696,-1.082921 0.34055,-0.615099 0.62928,-0.303216 0.0814,0.08663 0.11105,0.537125 0.0592,0.892326 0.33315,1.039603 0.19248,0.129951 0.88099,0.129951 0.4516,0 0.94021,-0.563118 0.54044,-0.615099 0.54044,-1.334156 0,-2.321782 -2.7022,-2.321782 -1.55469,0 -2.73921,1.420793 -1.16973,1.412125 -1.16973,3.240097 0,1.905936 0.99945,2.962865 0.97723,1.022277 2.73181,1.022277 1.58431,0 2.35425,-0.675743 0.31094,-0.268564 0.4516,-0.623761 0.14807,-0.355198 0.22951,-0.554455 0.0888,-0.199258 0.17027,-0.320542 0.0814,-0.129951 0.18508,-0.129951 0.11105,0 0.17028,0.06064 0.0592,0.05198 0.0888,0.129951 0.0148,0.03464 0.0592,0.36386 0.11105,0.779701 0.23691,1.048266 0.2221,0.450492 0.2221,0.571781 z"
       id="path4283"
       style="font-size:40px;line-height:1.25;font-family:'Snowburst One';-inkscape-font-specification:'Snowburst One, Normal';white-space:pre;shape-inside:url(#rect94684);fill:#ff0000;stroke-width:1.43895" />
    <path
       d="m 122.59276,78.005826 -1.27337,-0.08664 q -0.41458,0 -0.51082,0.02599 -0.42199,0.103958 -0.42199,-0.207921 0,-0.181932 0.24431,-0.467822 0.25171,-0.285891 0.4442,-0.545792 0.19248,-0.268565 0.21469,-0.433167 0.0296,-0.181932 0.0666,-2.58168 0.0666,-4.426977 0.0296,-4.756186 -0.037,-0.337871 -0.0962,-0.485148 -0.074,-0.190595 -0.31094,-0.372522 -0.2295,-0.190595 -0.34795,-0.285895 -0.11105,-0.103958 -0.11105,-0.199253 0,-0.103963 0.0148,-0.155944 0.0148,-0.05198 0.0592,-0.103958 0.10364,-0.121288 0.29613,-0.121288 l 0.58486,0.06931 q 0.42199,0 0.64409,-0.07797 0.2295,-0.08663 0.34055,-0.08663 0.11105,0 0.21469,0.07797 0.11105,0.07797 0.11105,0.216583 0,0.129951 -0.10365,0.251239 -0.0962,0.112621 -0.22209,0.251235 -0.36276,0.398516 -0.4294,0.66708 l -0.037,1.879949 q 0.47381,-1.420793 1.29558,-2.113862 0.61447,-0.511137 1.25115,-0.537125 0.17768,0 0.97724,-0.779706 h 0.007 q 0.0592,-0.05198 0.12586,-0.112621 0.0666,-0.06931 0.16287,-0.06931 0.2221,0 0.2221,0.355197 l -0.037,1.221535 0.0222,0.545788 q 0,0.147281 -0.0666,0.268564 -0.14807,0.277228 -0.45901,-0.0086 v 0.0086 q -0.28132,-0.355197 -0.60707,-0.511136 -0.32574,-0.15594 -0.51083,-0.15594 -0.18508,0 -0.4664,0.181928 -0.28133,0.181932 -0.53304,0.485148 -0.24431,0.294558 -0.45901,0.684406 -0.21469,0.38119 -0.37756,0.797031 -0.34056,0.866334 -0.38497,1.481433 -0.037,0.615099 -0.0666,1.100247 -0.0222,0.476485 -0.0444,0.952971 -0.0889,1.983906 -0.0148,2.165838 0.074,0.181932 0.16287,0.329209 l 0.54044,0.857671 q 0.18508,0.38119 -0.14066,0.38119 z"
       id="path4285"
       style="font-size:40px;line-height:1.25;font-family:'Snowburst One';-inkscape-font-specification:'Snowburst One, Normal';white-space:pre;shape-inside:url(#rect94684);fill:#ff0000;stroke-width:1.43895" />
    <path
       d="m 143.09249,79.184043 q -0.20729,0 -0.47381,-0.259902 -0.25912,-0.251239 -0.37017,-0.329209 -0.2369,-0.155939 -0.49602,-0.173265 -0.25171,-0.01734 -0.4442,0.02599 -0.18508,0.04334 -0.4516,0.0953 -1.03646,0.181932 -1.68795,0.129951 -1.18453,-0.09529 -1.73977,-0.311879 -0.55525,-0.216583 -1.02906,-0.528466 -0.46641,-0.320546 -0.91801,-0.788364 -0.4442,-0.467823 -0.78475,-1.117573 -0.76994,-1.429456 -0.76994,-3.361385 0,-3.846529 2.78364,-5.440587 1.81381,-1.04827 4.68628,-1.100247 0.4516,0 0.86619,-0.407179 0.11845,-0.121288 0.19248,-0.259901 0.16288,-0.294554 0.4294,-0.294554 0.27392,0 0.27392,0.294554 0,0 -0.11105,0.537129 -0.15547,0.857671 -0.15547,1.576732 l 0.0222,0.36386 q 0,0.311879 -0.20729,0.311879 -0.18508,0 -0.39237,-0.346534 -0.19989,-0.355198 -0.42199,-0.545793 -0.2147,-0.19059 -0.45901,-0.28589 -0.32574,-0.121284 -1.06607,-0.121284 -0.73293,0 -1.43624,0.15594 -0.70331,0.155939 -1.33259,0.467822 -0.62928,0.303216 -1.16972,0.762376 -0.53304,0.459155 -0.92542,1.074254 -0.83657,1.308168 -0.83657,3.066828 0,2.96287 1.64353,4.383663 1.34,1.160886 3.22784,1.160886 1.73977,0 2.39867,-0.745045 0.15547,-0.181932 0.29613,-0.502478 0.14066,-0.320542 0.35536,-0.554455 0.21469,-0.233909 0.37016,-0.233909 0.25912,0 0.25912,0.502473 l -0.0592,0.857676 q 0,0.493811 0.11845,1.221531 0.11846,0.719061 -0.18508,0.719061 z"
       id="path4287"
       style="font-size:40px;line-height:1.25;font-family:'Snowburst One';-inkscape-font-specification:'Snowburst One, Normal';white-space:pre;shape-inside:url(#rect94684);fill:#ff0000;stroke-width:1.43895" />
    <path
       d="m 149.99236,77.538003 q -0.42199,0.138614 -0.75514,0.181928 -0.33315,0.03464 -0.48861,0.03464 -0.15547,0 -0.48122,-0.05198 -0.32574,-0.05198 -0.71072,-0.199258 -0.38497,-0.155939 -0.78474,-0.441829 -0.39978,-0.294553 -0.72553,-0.771039 -0.74033,-1.065595 -0.74033,-2.7896 0,-1.646039 0.93282,-2.919556 0.85138,-1.178216 1.88044,-1.37747 0.65149,-0.233913 1.53248,-0.07797 0.84397,0.155944 1.56209,0.771043 0.82177,0.693069 1.16972,2.096532 0.17768,0.736382 0.17768,1.698016 0,0.961633 -0.2443,1.628713 -0.24431,0.658413 -0.62188,1.10891 -0.37757,0.44183 -0.82917,0.710394 -0.4516,0.259902 -0.87359,0.398516 z m -2.2432,-0.840345 q 0.30354,0.138614 0.57746,0.199258 0.27392,0.05198 0.42199,0.05198 0.14806,0 0.41458,-0.03464 0.27392,-0.03464 0.60707,-0.147276 0.34055,-0.112625 0.70331,-0.320546 0.37017,-0.216583 0.6737,-0.580443 0.69591,-0.831683 0.69591,-2.183169 0,-2.763612 -1.69535,-3.543313 -1.29558,-0.589106 -2.65038,0.251239 -0.18508,0.112621 -0.32575,0.190591 -0.52563,0.424508 -0.84397,1.33416 -0.27392,0.779701 -0.27392,1.55074 0,0.762375 0.14806,1.299504 0.15547,0.528463 0.39238,0.909653 0.2443,0.381185 0.54784,0.632424 0.30354,0.242576 0.60707,0.389853 z"
       id="path4289"
       style="font-size:40px;line-height:1.25;font-family:'Snowburst One';-inkscape-font-specification:'Snowburst One, Normal';white-space:pre;shape-inside:url(#rect94684);fill:#ff0000;stroke-width:1.43895" />
    <g
       id="g2684">
      <g
         id="g344873"
         transform="matrix(2.047837,0,0,2.056189,3.2199721,0.08794544)">
        <path
           style="fill:#ff0000;stroke:#000000;stroke-width:0.0574985px;stroke-linecap:butt;stroke-linejoin:miter;stroke-opacity:1"
           d="m 36.652333,4.8291972 c 1.46538,1.2266683 1.697716,2.7420922 1.740908,4.3018076 2.763924,-0.7750386 5.531537,-1.5216813 8.764552,1.3285042 2.31874,3.202445 4.435192,7.303918 1.800937,13.031945 -1.48005,2.162666 -1.952029,6.011421 -7.864075,6.895556 -1.193034,-0.06226 -2.848941,0.08283 -3.721943,-0.822412 -4.227187,1.801215 -7.864082,-0.442823 -7.864082,-0.442823 -0.06264,0.01973 -3.157045,-0.137814 -4.202186,-9.362765 -0.317905,-3.870343 1.073026,-8.012435 4.082117,-10.8810503 2.001034,-1.3751106 4.002079,-1.0015094 6.003123,-0.3795678 l 2.161118,0.6326129 C 37.582922,6.2207427 35.412256,6.0852156 34.731307,4.9733267 Z"
           id="path94674"
           sodipodi:nodetypes="ccccccccccccc" />
        <path
           style="fill:#008000;stroke:#000000;stroke-width:0.0574985px;stroke-linecap:butt;stroke-linejoin:miter;stroke-opacity:1"
           d="M 38.393241,9.1310048 C 38.947273,7.8817609 38.189234,6.3302921 40.554367,4.7659433 44.424163,4.2507169 46.820274,2.6796808 47.165844,1.6661076 46.977999,2.9946021 46.593999,5.7148627 45.364915,7.0433655 43.489729,8.3793498 44.224033,7.8026548 42.663499,8.4351232 Z"
           id="path94676"
           sodipodi:nodetypes="cccccc" />
        <path
           style="fill:#ff0000;stroke:#000000;stroke-width:0;stroke-linecap:butt;stroke-linejoin:miter;stroke-miterlimit:4;stroke-dasharray:none;stroke-opacity:1"
           d="m 36.652333,4.8291972 c 1.46538,1.2266683 1.697716,2.7420922 1.740908,4.3018076 2.763924,-0.7750386 5.531537,-1.5216813 8.764552,1.3285042 2.31874,3.202445 4.435192,7.303918 1.800937,13.031945 -1.48005,2.162666 -1.952029,6.011421 -7.864075,6.895556 -1.193034,-0.06226 -2.848941,0.08283 -3.721943,-0.822412 -4.227187,1.801215 -7.864082,-0.442823 -7.864082,-0.442823 -0.06264,0.01973 -3.157045,-0.137814 -4.202186,-9.362765 -0.317905,-3.870343 1.073026,-8.012435 4.082117,-10.8810503 2.001034,-1.3751106 4.002079,-1.0015094 6.003123,-0.3795678 l 2.161118,0.6326129 C 37.582922,6.2207427 35.412256,6.0852156 34.731307,4.9733267 Z"
           id="path94682"
           sodipodi:nodetypes="ccccccccccccc" />
      </g>
    </g>
  </g>
</svg>
