<?xml version="1.0" encoding="UTF-8" standalone="no"?>
<!-- Created with Inkscape (http://www.inkscape.org/) -->

<svg
   width="63mm"
   height="50mm"
   viewBox="0 0 63 50"
   version="1.1"
   id="svg8751"
   inkscape:version="1.1.1 (3bf5ae0d25, 2021-09-20)"
   sodipodi:docname="maroon tweet.svg"
   xmlns:inkscape="http://www.inkscape.org/namespaces/inkscape"
   xmlns:sodipodi="http://sodipodi.sourceforge.net/DTD/sodipodi-0.dtd"
   xmlns="http://www.w3.org/2000/svg"
   xmlns:svg="http://www.w3.org/2000/svg">
  <sodipodi:namedview
     id="namedview8753"
     pagecolor="#ffffff"
     bordercolor="#666666"
     borderopacity="1.0"
     inkscape:pageshadow="2"
     inkscape:pageopacity="0.0"
     inkscape:pagecheckerboard="0"
     inkscape:document-units="mm"
     showgrid="false"
     inkscape:showpageshadow="false"
     showborder="false"
     inkscape:zoom="0.7198092"
     inkscape:cx="298.69026"
     inkscape:cy="450.11928"
     inkscape:window-width="1920"
     inkscape:window-height="986"
     inkscape:window-x="-11"
     inkscape:window-y="-11"
     inkscape:window-maximized="1"
     inkscape:current-layer="layer1" />
  <defs
     id="defs8748" />
  <g
     inkscape:label="Layer 1"
     inkscape:groupmode="layer"
     id="layer1">
    <path
       style="fill:#b30000;fill-opacity:1;stroke:#b3db00;stroke-width:0;stroke-linecap:butt;stroke-linejoin:miter;stroke-miterlimit:4;stroke-dasharray:none;stroke-opacity:1"
       d="m 37.10303,3.0069311 c 4.04894,-1.153049 10.51829,-2.768801 15.95822,1.931809 l 7.57427,-1.963699 c 2.51115,1.297717 -2.22459,3.630705 -4.48846,5.610568 L 63.72133,7.7440241 57.51782,13.63512 C 58.16644,28.450822 54.8052,33.859072 50.38388,37.948732 45.45716,42.505874 35.40559,47.62735 24.727876,49.54275 17.781761,49.54075 2.5242639,51.01491 1.1634929,44.49324 6.7240359,43.015564 13.208429,42.923654 17.43414,39.443732 14.088139,37.675242 5.5885069,38.191432 0.88296488,29.625232 2.2494149,29.562232 7.1268479,31.200552 14.34833,31.869462 10.683264,33.987302 0.70194988,26.902442 2.3493879,18.997047 l 5.546786,1.090226 C 0.42876888,15.02626 -1.0560031,7.8861251 4.8103619,3.5998781 10.076371,8.9208461 15.474302,14.353234 30.33845,16.720931 29.10569,10.914777 30.94478,5.1175841 37.10303,3.0069311 Z"
       id="path2686"
       sodipodi:nodetypes="ccccccscccccccccc" />
  </g>
</svg>
